<svg width="500" height="501" viewBox="0 0 500 501" fill="none" xmlns="http://www.w3.org/2000/svg">
<path d="M83.8984 20.834C83.8984 9.32773 93.2914 0 104.878 0L335.655 0C347.242 0 356.635 9.32772 356.635 20.834L356.635 479.183C356.635 490.689 347.242 500.017 335.655 500.017L104.878 500.017C93.2914 500.017 83.8984 490.689 83.8984 479.183L83.8984 20.834Z" fill="url(#paint0_linear_373_45)"/>
<path d="M125 52.0772C125 46.324 129.664 41.6602 135.417 41.6602L156.251 41.6602C162.004 41.6602 166.668 46.324 166.668 52.0772L166.668 364.588C166.668 370.341 162.004 375.005 156.251 375.005H135.417C129.664 375.005 125 370.341 125 364.588L125 52.0772Z" fill="url(#paint1_linear_373_45)"/>
<path d="M197.898 52.0772C197.898 46.324 202.562 41.6602 208.315 41.6602L229.149 41.6602C234.903 41.6602 239.567 46.324 239.567 52.0772L239.567 364.588C239.567 370.341 234.903 375.005 229.149 375.005H208.315C202.562 375.005 197.898 370.341 197.898 364.588L197.898 52.0772Z" fill="url(#paint2_linear_373_45)"/>
<path d="M270.852 52.0772C270.852 46.324 275.515 41.6602 281.269 41.6602L302.103 41.6602C307.856 41.6602 312.52 46.324 312.52 52.0772L312.52 364.588C312.52 370.341 307.856 375.005 302.103 375.005H281.269C275.515 375.005 270.852 370.341 270.852 364.588L270.852 52.0772Z" fill="url(#paint3_linear_373_45)"/>
<path d="M0 310.941C0 300.733 7.55503 292.051 17.7896 290.499L248.567 255.499C261.275 253.571 272.736 263.265 272.736 275.94V479.335C272.736 490.758 263.344 500.017 251.757 500.017H20.9797C9.39294 500.017 0 490.758 0 479.335L0 310.941Z" fill="url(#paint4_linear_373_45)"/>
<path d="M500 458.704V254.846C500 240.332 492.267 226.883 479.629 219.416L306.09 116.883C299.098 112.752 290.203 117.711 290.203 125.74V458.704C290.203 481.524 308.989 500.023 332.163 500.023H458.041C481.215 500.023 500 481.524 500 458.704Z" fill="url(#paint5_linear_373_45)"/>
<defs>
<linearGradient id="paint0_linear_373_45" x1="220.267" y1="0" x2="220.267" y2="500.017" gradientUnits="userSpaceOnUse">
<stop stop-color="#FFE196" stop-opacity="0.25"/>
<stop offset="1" stop-color="#FFE196" stop-opacity="0"/>
</linearGradient>
<linearGradient id="paint1_linear_373_45" x1="145.834" y1="41.6602" x2="145.834" y2="375.005" gradientUnits="userSpaceOnUse">
<stop stop-color="white" stop-opacity="0.5"/>
<stop offset="1" stop-color="white" stop-opacity="0"/>
</linearGradient>
<linearGradient id="paint2_linear_373_45" x1="218.732" y1="41.6602" x2="218.732" y2="375.005" gradientUnits="userSpaceOnUse">
<stop stop-color="white" stop-opacity="0.5"/>
<stop offset="1" stop-color="white" stop-opacity="0"/>
</linearGradient>
<linearGradient id="paint3_linear_373_45" x1="291.686" y1="41.6602" x2="291.686" y2="375.005" gradientUnits="userSpaceOnUse">
<stop stop-color="white" stop-opacity="0.5"/>
<stop offset="1" stop-color="white" stop-opacity="0"/>
</linearGradient>
<linearGradient id="paint4_linear_373_45" x1="120.325" y1="255.254" x2="120.325" y2="500.017" gradientUnits="userSpaceOnUse">
<stop stop-color="#FFE196" stop-opacity="0.8"/>
<stop offset="1" stop-color="#FFE196" stop-opacity="0"/>
</linearGradient>
<linearGradient id="paint5_linear_373_45" x1="382.761" y1="115.395" x2="382.761" y2="500.023" gradientUnits="userSpaceOnUse">
<stop stop-color="#FFE196"/>
<stop offset="1" stop-color="#FFE196" stop-opacity="0"/>
</linearGradient>
</defs>
</svg>