<svg width="499" height="499" viewBox="0 0 499 499" fill="none" xmlns="http://www.w3.org/2000/svg">
<path d="M472.137 220.331L471.374 219.909C411.405 185.835 263.254 171.538 140.985 187.989L140.399 188.071V187.485C140.562 98.9621 163.133 30.9245 199.291 9.93533C214.938 0.844562 232.56 1.33522 250.265 11.2983C307.154 3.73398 361.14 19.5167 402.559 55.8253C424.577 75.2154 441.992 99.2742 453.533 126.248C465.976 154.87 472.246 186.217 472.191 219.527L472.137 220.331ZM247.771 180.152C339.278 180.152 427.678 194.313 471.115 218.587C471.115 185.754 464.818 154.801 452.552 126.589C441.055 99.7555 423.726 75.8198 401.823 56.5204C360.649 20.4435 306.813 4.72892 250.224 12.375H250.061L249.911 12.2796C232.192 2.24838 215.374 1.74409 199.796 10.7803C164.046 31.5787 141.694 99.0166 141.421 186.899C176.685 182.323 212.211 180.069 247.771 180.152Z" fill="#D9C89E"/>
<path d="M361.766 29.725C331.591 12.5793 256.902 5.39669 195.298 13.6561L195.161 12.6475C256.957 4.3336 331.918 11.598 362.271 28.8391L361.766 29.725Z" fill="#D9C89E"/>
<path d="M441.253 104.237C389.543 74.9064 261.618 62.5037 156.086 76.6918L155.95 75.6832C261.659 61.4678 389.884 73.8841 441.757 103.351L441.253 104.237Z" fill="#D9C89E"/>
<path d="M386.926 192.337H385.904C386.054 110.056 362.148 44.9081 321.942 18.0447C300.503 3.73389 275.752 1.68949 250.36 12.334L249.911 11.3936C275.643 0.680927 300.721 2.68444 322.46 17.1997C363.034 44.2403 387.076 109.716 386.926 192.337Z" fill="#D9C89E"/>
<path d="M268.283 180.861H267.261C267.465 65.0114 261.373 3.48862 255.226 2.69812C254.626 2.61634 252.936 3.35232 250.66 11.9933L249.665 11.7344C251.546 4.60623 253.359 1.40333 255.362 1.67592C264.508 2.8753 268.447 92.5291 268.283 180.861Z" fill="#D9C89E"/>
<path d="M28.3249 280.014L27.5617 279.592C8.7941 268.92 0.0849571 257.008 2.37469 245.15C4.54175 234.029 16.2085 223.439 35.5757 214.157C55.0112 137.792 106.803 71.4171 173.45 36.2126C180.987 24.4505 189.655 15.5233 199.346 9.93523C215.033 0.817204 232.71 1.33511 250.469 11.4208L251.832 12.1704L250.32 12.3749C223.71 16.0532 197.957 24.39 174.241 37.0031C153.688 69.2365 141.639 122.868 141.53 187.485V187.934H141.094C96.6488 193.904 60.681 203.335 36.5707 214.743C31.2206 235.776 28.4742 257.385 28.3931 279.087L28.3249 280.014ZM35.2623 215.37C16.6582 224.393 5.46853 234.615 3.38324 245.355C1.20255 256.585 9.47555 267.952 27.3163 278.27C27.451 257.061 30.1185 235.945 35.2623 215.37ZM172.373 37.9435C106.953 73.0799 56.0879 138.446 36.7615 213.598C60.899 202.286 96.567 192.964 140.344 187.035C140.576 123.44 152.325 70.4495 172.373 37.9435ZM222.802 4.38809C214.692 4.4391 206.746 6.67048 199.796 10.8484C190.705 16.1366 182.486 24.4777 175.263 35.3812C198.176 23.3733 222.953 15.3232 248.548 11.5707C240.685 7.05346 231.813 4.58367 222.747 4.38809H222.802Z" fill="#D9C89E"/>
<path d="M137.932 59.8322C128.392 54.3805 123.921 48.2882 125.107 42.1959C127.587 29.4524 154.424 18.1265 195.162 12.6475L195.298 13.656C155.01 19.1078 128.514 30.0112 126.115 42.3867C125.025 48.0156 129.291 53.7399 138.382 58.9327L137.932 59.8322Z" fill="#D9C89E"/>
<path d="M58.1323 155.769C41.8862 146.542 34.3628 136.238 36.3254 125.962C40.5232 104.305 86.3451 85.0738 155.923 75.6832L156.059 76.6918C86.9584 85.987 41.4637 104.891 37.2931 126.153C35.3986 135.952 42.7448 145.888 58.5821 154.87L58.1323 155.769Z" fill="#D9C89E"/>
<path d="M44.2849 210.981H43.2627C43.3854 142.835 69.0358 82.525 113.617 45.535C151.452 14.1875 199.973 2.01654 250.251 11.3663L250.074 12.3748C200.095 3.07963 151.875 15.1007 114.272 46.3119C69.9217 83.0838 44.4076 143.135 44.2849 210.981Z" fill="#D9C89E"/>
<path d="M3.71031 243.91H2.68811C2.79715 182.142 27.4662 124.095 72.1977 80.4807C119.355 34.4408 182.595 9.93522 250.224 11.3936V12.4158C182.704 10.8484 119.805 35.3812 72.8519 81.1758C28.3794 124.599 3.81934 182.374 3.71031 243.91Z" fill="#D9C89E"/>
<path d="M251.669 318.449C159.616 318.449 70.7532 304.124 27.5618 279.591L27.3029 279.442V279.142C27.5482 147.973 127.492 27.8441 250.088 11.3662H250.265L250.415 11.448C310.561 45.6167 359.286 180.056 359.041 311.143V311.593H358.605C323.15 316.234 287.426 318.524 251.669 318.449ZM28.3251 278.842C88.2941 312.738 236.022 326.994 358.019 310.666C358.155 180.166 309.771 46.5026 250.061 12.402C128.119 28.8935 28.7203 148.341 28.3251 278.842Z" fill="#D9C89E"/>
<path d="M251.11 79.4584C204.634 79.4584 159.794 72.2212 137.987 59.8322L138.491 58.9326C168.666 76.0783 243.341 83.2882 304.96 75.0016L305.096 76.0102C287.197 78.3533 269.162 79.5053 251.11 79.4584Z" fill="#D9C89E"/>
<path d="M251.642 189.393C172.155 189.393 95.4222 177.017 58.1051 155.837L58.6094 154.938C110.319 184.323 238.244 196.684 343.776 182.483L343.912 183.505C313.318 187.496 282.495 189.463 251.642 189.393Z" fill="#D9C89E"/>
<path d="M113.617 306.264H112.595C112.772 175.164 174.418 42.8773 249.911 11.3936L250.306 12.334C175.167 43.6814 113.781 175.532 113.617 306.264Z" fill="#D9C89E"/>
<path d="M232.192 317.74H231.17C231.402 186.789 239.702 49.5148 249.665 11.7343L250.66 11.9932C240.711 49.7056 232.424 186.858 232.192 317.74Z" fill="#D9C89E"/>
<path d="M358.019 311.702V311.116C358.264 180.356 309.771 46.2847 249.911 12.3068L248.548 11.5572L250.047 11.3664C306.936 3.72032 361.058 19.544 402.464 55.7571C424.482 75.1473 441.896 99.206 453.437 126.18C465.84 154.692 472.123 185.972 472.096 219.159C490.686 229.79 499.355 241.648 497.024 253.451C492.172 278.501 439.113 300.785 358.564 311.621L358.019 311.702ZM251.723 12.2114C311.174 47.5114 359.136 180.602 359.041 310.558C438.813 299.763 491.245 277.847 496.056 253.314C498.264 241.92 489.732 230.39 471.374 219.963L471.115 219.813V219.514C471.115 186.353 464.927 155.115 452.552 126.643C441.055 99.81 423.726 75.8743 401.823 56.5749C361.017 20.757 307.754 5.04236 251.723 12.2114Z" fill="#D9C89E"/>
<path d="M305.041 76.0102L304.905 75.0017C345.193 69.5499 371.689 58.6465 374.087 46.271C375.178 40.6557 370.925 34.9314 361.821 29.725L362.325 28.8391C371.866 34.2908 376.336 40.3695 375.151 46.4755C372.575 59.2189 345.779 70.5312 305.041 76.0102Z" fill="#D9C89E"/>
<path d="M343.953 183.437L343.817 182.414C412.945 173.119 458.439 154.174 462.556 132.953C464.45 123.154 457.104 113.232 441.267 104.237L441.771 103.351C458.017 112.578 465.54 122.881 463.578 133.158C459.339 154.815 413.463 174.073 343.953 183.437Z" fill="#D9C89E"/>
<path d="M456.177 287.619H455.155C455.4 156.927 363.402 33.4594 250.074 12.3748L250.251 11.3662C364.043 32.5326 456.422 156.464 456.177 287.619Z" fill="#D9C89E"/>
<path d="M496.752 254.732H495.729C495.975 124.095 385.809 15.3733 250.156 12.3749V11.3527C386.381 14.3647 496.997 123.536 496.752 254.732Z" fill="#D9C89E"/>
<path d="M249.175 487.248L249.025 487.166C188.892 452.998 140.154 318.558 140.399 187.485V187.035H140.849C263.295 170.557 411.8 184.936 471.878 219.064L472.137 219.214V219.514C471.892 350.669 371.948 470.798 249.352 487.275L249.175 487.248ZM141.421 187.934C141.298 318.422 189.669 452.085 249.379 486.185C371.321 469.68 470.706 350.219 471.115 219.759C411.105 185.863 263.417 171.675 141.421 187.934Z" fill="#D9C89E"/>
<path d="M440.803 343.717C389.093 314.346 261.168 301.984 155.637 316.172L155.5 315.164C261.223 300.949 389.434 313.365 441.321 342.831L440.803 343.717Z" fill="#D9C89E"/>
<path d="M361.003 439.654C330.828 422.509 256.153 415.299 194.535 423.585L194.398 422.577C256.194 414.263 331.169 421.527 361.508 438.769L361.003 439.654Z" fill="#D9C89E"/>
<path d="M249.475 487.194L249.079 486.253C324.286 454.906 385.659 323.056 385.904 192.337H386.926C386.681 323.437 325.022 455.71 249.475 487.194Z" fill="#D9C89E"/>
<path d="M249.774 486.853L248.793 486.594C258.729 448.881 267.016 311.729 267.261 180.861H268.283C268.038 311.811 259.737 449.072 249.774 486.853Z" fill="#D9C89E"/>
<path d="M221.453 489.115C174.936 489.115 131.499 473.128 96.935 442.776C74.9167 423.385 57.5024 399.327 45.9613 372.353C33.5586 343.854 27.2891 312.575 27.3028 279.387C8.71236 268.756 0.0441127 256.899 2.37473 245.096C7.2404 220.045 60.2994 197.747 140.849 186.926L141.421 186.844V187.43C141.176 318.176 189.683 452.221 249.529 486.226L250.892 486.976L249.393 487.166C240.134 488.441 230.799 489.092 221.453 489.115ZM140.399 188.03C60.6265 198.824 8.19444 220.74 3.38329 245.273C1.17533 256.667 9.7073 268.197 28.066 278.624L28.325 278.774V279.074C28.325 312.234 34.5127 343.472 46.9018 371.93C58.3848 398.764 75.7052 422.701 97.6029 441.999C138.423 477.762 191.645 493.477 247.73 486.335C188.279 451.076 140.304 318.013 140.399 188.03Z" fill="#D9C89E"/>
<path d="M57.7371 395.196C41.5045 385.982 33.9675 375.665 35.9301 365.402C40.128 343.745 85.9634 324.514 155.528 315.123L155.664 316.132C86.5359 325.427 41.0411 344.385 36.9387 365.593C35.0306 375.392 42.3904 385.328 58.2141 394.31L57.7371 395.196Z" fill="#D9C89E"/>
<path d="M137.182 469.748C127.642 464.296 123.171 458.218 124.344 452.125C126.824 439.368 153.66 428.056 194.398 422.577L194.535 423.585C154.246 429.037 127.751 440.009 125.352 452.316C124.262 457.945 128.528 463.656 137.619 468.862L137.182 469.748Z" fill="#D9C89E"/>
<path d="M249.188 487.221C135.424 466.068 43.0174 342.123 43.2627 210.981H44.2849C44.0396 341.659 136.038 465.128 249.379 486.212L249.188 487.221Z" fill="#D9C89E"/>
<path d="M249.27 487.234C113.059 484.222 2.44295 375.051 2.68827 243.869H3.71047C3.46515 374.506 113.631 483.214 249.297 486.212L249.27 487.234Z" fill="#D9C89E"/>
<path d="M276.72 495.126C267.009 494.938 257.516 492.223 249.175 487.248C239.986 488.488 230.725 489.111 221.453 489.115C174.936 489.115 131.499 473.128 96.9351 442.776C74.9168 423.385 57.5025 399.327 45.9614 372.353C33.5178 343.731 27.2483 312.384 27.3028 279.087V278.215L28.0525 278.638C88.0215 312.711 236.186 327.008 358.455 310.557L359.027 310.476V311.062C358.864 399.584 336.307 467.608 300.148 488.597C293.063 492.829 284.972 495.083 276.72 495.126ZM249.379 486.185L249.529 486.28C267.247 496.312 284.066 496.816 299.644 487.78C335.408 467.009 357.76 399.571 358.019 311.702C236.2 327.976 88.7984 313.788 28.325 280.014C28.325 312.847 34.6218 343.786 46.9018 371.999C58.3849 398.832 75.7053 422.769 97.603 442.067C138.777 478.144 192.627 493.858 249.216 486.212L249.379 486.185Z" fill="#D9C89E"/>
<path d="M251.192 428.806C171.706 428.806 94.9725 416.43 57.6554 395.236L58.1597 394.351C109.869 423.735 237.794 436.097 343.34 421.895L343.476 422.918C312.878 426.909 282.049 428.875 251.192 428.806Z" fill="#D9C89E"/>
<path d="M250.347 489.388C203.871 489.388 159.03 482.151 137.223 469.748L137.728 468.862C167.903 486.008 242.578 493.218 304.183 484.931L304.319 485.94C286.424 488.283 268.394 489.435 250.347 489.388Z" fill="#D9C89E"/>
<path d="M217.405 493.981C202.953 493.942 188.848 489.554 176.926 481.387C136.446 454.347 112.363 388.885 112.527 306.264H113.617C113.454 388.544 137.373 453.693 177.566 480.542C199.005 494.853 223.756 496.829 249.147 486.253L249.543 487.194C239.386 491.566 228.462 493.873 217.405 493.981Z" fill="#D9C89E"/>
<path d="M244.309 496.925H244.091C234.932 495.726 231.007 406.072 231.17 317.754H232.193C231.975 433.603 238.081 495.112 244.214 495.917C244.813 495.917 246.503 495.249 248.793 486.608L249.774 486.867C247.962 493.709 246.231 496.925 244.309 496.925Z" fill="#D9C89E"/>
<path d="M276.719 495.126C267.697 495.126 258.374 492.468 249.025 487.166L247.662 486.417L249.161 486.212C275.773 482.528 301.53 474.191 325.254 461.584C345.793 429.351 357.841 375.719 357.964 311.116V310.694H358.414C402.845 304.724 438.827 295.293 462.923 283.885C468.274 262.853 471.02 241.243 471.101 219.541V218.668L471.864 219.091C490.659 229.681 499.327 241.593 497.065 253.451C494.911 264.572 483.245 275.162 463.877 284.43C444.483 360.754 392.651 427.17 325.99 462.375C318.453 474.137 309.784 483.064 300.162 488.652C293.067 492.867 284.972 495.102 276.719 495.126ZM250.824 487.016C268.01 496.339 284.42 496.557 299.603 487.78C308.694 482.491 316.926 474.15 324.136 463.315C301.219 475.28 276.448 483.293 250.865 487.016H250.824ZM359 311.566C358.823 375.16 347.088 428.138 327.039 460.644C392.46 425.507 443.311 360.155 462.637 285.002C438.541 296.315 402.873 305.637 359.041 311.566H359ZM472.123 220.345C471.984 241.549 469.312 262.66 464.164 283.231C482.768 274.208 493.971 263.986 496.043 253.246C498.237 242.029 489.964 230.649 472.137 220.345H472.123Z" fill="#D9C89E"/>
<path d="M343.503 422.918L343.367 421.896C412.481 412.6 457.976 393.656 462.092 372.435C463.987 362.635 456.64 352.713 440.803 343.718L441.321 342.832C457.553 352.059 465.091 362.363 463.128 372.639C458.889 394.296 413.067 413.554 343.503 422.918Z" fill="#D9C89E"/>
<path d="M304.278 485.94L304.142 484.931C344.444 479.479 370.926 468.576 373.324 456.2C374.415 450.585 370.162 444.861 361.058 439.654L361.562 438.769C371.103 444.22 375.573 450.299 374.387 456.405C371.866 469.148 345.016 480.461 304.278 485.94Z" fill="#D9C89E"/>
<path d="M282.049 490.301C271.024 490.285 260.024 489.253 249.188 487.221L249.379 486.212C299.358 495.521 347.578 483.486 385.182 452.275C429.532 415.476 455.032 355.507 455.155 287.619H456.177C456.054 355.766 430.417 416.076 385.822 453.052C356.706 477.317 319.95 490.511 282.049 490.301Z" fill="#D9C89E"/>
<path d="M255.09 487.289C253.154 487.289 251.219 487.289 249.27 487.289V486.267C316.654 487.752 379.607 463.315 426.574 417.466C471.033 374.043 495.593 316.268 495.702 254.786H496.724C496.615 316.554 471.946 374.588 427.283 418.202C381.516 462.865 320.538 487.289 255.09 487.289Z" fill="#D9C89E"/>
<path d="M249.992 496.993C244.404 496.993 239.634 496.775 237.14 496.666C233.569 496.502 225.364 495.875 219.831 495.167C214.297 494.458 214.379 494.458 206.61 493.19C205.152 492.959 203.435 492.618 201.758 492.277L199.564 491.841C189.546 489.76 179.665 487.07 169.975 483.786C164.332 481.783 157.708 479.234 153.061 477.312C149.149 475.677 144.038 473.333 140.372 471.479C134.702 468.603 127.56 464.664 122.654 461.775C117.747 458.885 112.213 455.301 108.52 452.63C97.9776 445.283 88.0127 437.141 78.7126 428.274C74.2967 424.049 69.3083 418.924 65.9828 415.203C62.0166 410.774 56.4422 404.15 52.4216 398.848C44.3994 388.286 37.2304 377.102 30.9826 365.402C25.2144 354.003 20.0997 342.286 15.6633 330.306C13.2561 323.607 11.2132 316.782 9.54369 309.862C8.54875 305.951 7.60833 301.167 6.69517 296.56C6.28629 294.475 5.89102 292.471 5.5094 290.631C4.15892 283.509 3.27116 276.307 2.85169 269.07L2.78353 267.979C2.13645 260.078 1.91353 252.148 2.11571 244.223C2.21112 242.629 2.2929 240.884 2.37467 239.085C2.60637 234.151 2.87895 228.55 3.34234 224.093C4.00171 216.835 5.05729 209.619 6.50436 202.477C6.83146 201.114 7.15855 199.533 7.51291 197.952C8.56237 193.127 9.76175 187.675 10.9611 183.409C12.8147 176.84 15.4997 168.54 17.6668 162.747C19.8338 156.955 22.7505 149.977 25.0811 145.029C26.812 141.349 31.2825 132.095 35.3168 125.389C41.5181 115.058 50.5544 102.356 56.4013 94.6142C59.5361 90.5254 63.9793 85.6461 67.9045 81.3937C69.2674 80.0308 70.4532 78.6679 71.5844 77.3049C75.6782 72.9053 80.0097 68.733 84.5595 64.8068C90.5292 59.6141 98.7477 53.1674 104.404 48.7787C109.693 44.7776 115.214 41.0913 120.936 37.739C128.242 33.4457 138.355 28.0349 146.082 24.2868C150.648 22.0652 157.626 19.1758 164.755 16.559C170.274 14.5146 177.525 12.184 182.772 10.7529C191.334 8.33519 200.019 6.37883 208.791 4.89228C213.438 4.04726 222.706 2.80699 229.562 2.27545C234.428 1.90746 238.244 1.67576 240.915 1.60761C248.357 1.4168 249.093 1.40317 257.025 1.60761C258.075 1.60761 267.601 1.83931 279.663 3.31128C286.751 4.16993 292.652 5.23301 292.898 5.28753C295.119 5.69641 298.254 6.28248 300.612 6.77313C302.343 7.14112 304.469 7.63178 306.431 8.13607L308.803 8.68124C311.352 9.2673 314.882 10.2214 319.284 11.5025C321.71 12.2249 325.063 13.288 329.506 14.7599C335.271 16.6544 341.922 19.2031 346.447 21.2475C349.8 22.7603 353.507 24.5185 357.173 26.3312C362.144 28.5937 367.014 31.0788 371.784 33.7865L372.084 33.9636C379.517 38.2018 386.727 42.8192 393.686 47.7974C398.511 51.4501 405.789 56.97 410.928 61.3041C412.849 62.926 419.487 68.5958 424.175 73.5705L425.061 74.4973C429.382 79.0359 434.765 84.6784 438.69 89.217C442.084 93.1695 446.705 99.0437 450.194 103.828C453.683 108.612 458.371 115.74 461.874 121.369C465.581 127.447 469.029 133.635 471.074 137.969C473.554 143.216 477.316 151.135 479.756 157.132C481.596 161.671 484.022 168.472 486.243 175.327C489.821 186.57 492.555 198.064 494.421 209.714C496.393 222.955 497.444 236.316 497.569 249.702C497.569 256.244 497.133 265.09 496.561 271.7C496.165 276.266 495.334 281.977 494.598 287.02C494.38 288.56 494.162 290.045 493.971 291.408C492.803 298.52 491.27 305.566 489.378 312.52C488.015 317.863 485.753 325.141 483.667 331.07C481.582 336.998 478.529 344.699 475.68 351.023C474.072 354.621 471.892 358.832 469.793 362.921C468.866 364.72 467.966 366.451 467.176 368.032C463.697 374.469 459.871 380.711 455.714 386.732C453.56 389.989 450.752 393.751 448.04 397.39C446.882 398.944 445.778 400.429 444.783 401.806C440.108 407.856 435.103 413.644 429.791 419.142C425.62 423.599 420.563 428.574 416.924 431.818C411.609 436.547 403.963 442.857 397.448 447.914C392.978 451.389 386.858 455.424 383.614 457.522C379.798 459.976 374.674 462.974 370.544 465.359L369.29 466.082C361.044 470.789 352.477 474.91 343.653 478.416C336.116 481.36 330.392 483.445 326.167 484.822C320.865 486.539 313.587 488.597 308.026 489.947C302.247 491.31 295.46 492.768 290.73 493.545L290.09 493.64C287.732 494.035 284.802 494.499 282.539 494.785C278.45 495.303 273.19 495.848 269.932 496.148C269.66 496.148 262.886 496.816 253.141 496.966L249.992 496.993ZM249.297 2.6707C246.98 2.6707 244.922 2.6707 240.888 2.82062C238.23 2.88877 234.428 3.12047 229.589 3.48846C222.775 4.02 213.534 5.24665 208.914 6.09167C200.186 7.58301 191.542 9.53013 183.018 11.925C177.784 13.288 170.574 15.6731 165.068 17.7039C157.981 20.3207 151.03 23.1556 146.505 25.3908C138.791 29.1389 128.719 34.5225 121.427 38.8021C115.741 42.1072 110.257 45.7482 105.004 49.7055C99.3474 54.0942 91.1561 60.5272 85.2001 65.7064C80.6821 69.6055 76.3823 73.7505 72.3204 78.1227L68.6269 82.2115C64.7152 86.4366 60.2993 91.2341 57.1919 95.3502C51.3585 103.078 42.3495 115.794 36.1618 126.03C32.1548 132.708 27.698 141.935 25.9807 145.588C23.6637 150.467 20.7743 157.377 18.5936 163.183C16.4129 168.989 13.7552 177.222 11.9152 183.764C10.7295 188.002 9.53007 193.454 8.48061 198.252C8.13987 199.833 7.79913 201.373 7.47203 202.777C6.03703 209.884 4.98605 217.063 4.32366 224.284C3.87389 228.672 3.60131 234.247 3.36961 239.167C3.28783 240.98 3.20605 242.724 3.11065 244.319C2.91104 252.203 3.12941 260.091 3.76485 267.952L3.833 269.042C4.25947 276.234 5.1472 283.39 6.49072 290.468C6.87234 292.294 7.2676 294.311 7.67648 296.396C8.57602 301.003 9.51644 305.76 10.5114 309.644C12.1684 316.523 14.1976 323.307 16.5901 329.966C20.5289 340.269 26.3759 354.703 31.8549 364.938C38.0699 376.603 45.2167 387.748 53.2257 398.262C57.151 403.509 62.7662 410.106 66.7187 414.522C70.017 418.215 74.9918 423.327 79.3804 427.538C88.6546 436.361 98.5823 444.471 109.079 451.798C112.759 454.442 118.279 458.027 123.144 460.889C128.01 463.751 135.206 467.704 140.862 470.566C144.515 472.419 149.585 474.75 153.483 476.372C158.09 478.28 164.714 480.815 170.343 482.819C179.983 486.098 189.815 488.788 199.782 490.873L201.99 491.31C203.653 491.637 205.37 491.977 206.801 492.209C214.502 493.477 214.502 493.477 219.981 494.185C225.46 494.894 233.61 495.548 237.181 495.671C240.152 495.794 246.285 496.066 253.182 495.971C262.886 495.821 269.619 495.194 269.891 495.167C273.135 494.853 278.382 494.322 282.471 493.804C284.706 493.518 287.637 493.041 289.981 492.659L290.621 492.564C295.324 491.787 302.084 490.383 307.849 488.979C313.369 487.616 320.633 485.585 325.908 483.868C330.106 482.505 335.816 480.42 343.34 477.489C352.113 473.995 360.634 469.897 368.84 465.223L370.08 464.501C374.169 462.116 379.321 459.131 383.124 456.691C385.713 455.001 392.269 450.721 396.876 447.151C403.377 442.108 410.996 435.797 416.297 431.095C419.923 427.865 424.952 422.918 429.095 418.488C434.367 413.019 439.326 407.258 443.951 401.233C444.946 399.87 446.064 398.371 447.222 396.831C449.948 393.192 452.674 389.43 454.855 386.2C458.947 380.212 462.719 374.011 466.154 367.623C466.944 366.042 467.844 364.298 468.77 362.499C470.869 358.41 473.036 354.239 474.631 350.668C477.48 344.29 480.601 336.494 482.604 330.797C484.608 325.1 486.911 317.549 488.274 312.316C490.159 305.402 491.688 298.397 492.853 291.326C493.044 289.963 493.262 288.464 493.48 286.938C494.216 281.909 495.034 276.198 495.429 271.659C496.002 265.076 496.397 256.272 496.438 249.743C496.307 236.383 495.246 223.049 493.262 209.837C491.431 198.243 488.734 186.804 485.194 175.613C482.972 168.799 480.56 161.984 478.72 157.486C476.294 151.517 472.546 143.612 470.065 138.405C468.034 134.126 464.613 127.952 460.906 121.9C457.485 116.285 452.81 109.266 449.294 104.427C445.778 99.5889 441.212 93.8101 437.832 89.8848C433.947 85.3599 428.578 79.731 424.271 75.206L423.385 74.2792C418.724 69.3863 412.127 63.7574 410.219 62.1355C405.094 57.8286 397.83 52.3087 393.019 48.6697C386.081 43.7178 378.899 39.1188 371.498 34.8904L371.225 34.7405C367.137 32.5871 361.971 29.9021 356.696 27.3125C324.218 12.4975 287.787 7.33193 250.388 12.3203H250.279L250.142 11.3117C279.401 7.18679 309.213 9.69753 337.37 18.6579C334.644 17.6221 331.796 16.6135 329.192 15.7412C324.749 14.2693 321.41 13.2062 318.998 12.4974C314.609 11.2163 311.106 10.2759 308.571 9.68981L306.2 9.14463C304.251 8.69487 302.111 8.19058 300.394 7.7817C298.049 7.27741 294.942 6.69136 292.72 6.29611C292.461 6.29611 286.601 5.1785 279.541 4.31985C267.533 2.86151 258.047 2.64344 256.998 2.62981C253.345 2.6707 251.274 2.6707 249.297 2.6707Z" fill="#D9C89E"/>
<path d="M472.137 220.331L471.374 219.909C411.405 185.835 263.254 171.538 140.985 187.989L140.399 188.071V187.485C140.563 98.9621 163.133 30.9245 199.291 9.93533C214.938 0.844562 232.561 1.33522 250.265 11.2983C307.154 3.73398 361.14 19.5167 402.559 55.8253C424.578 75.2154 441.992 99.2742 453.533 126.248C465.977 154.87 472.246 186.217 472.192 219.527L472.137 220.331ZM247.771 180.152C339.278 180.152 427.678 194.313 471.115 218.587C471.115 185.754 464.818 154.801 452.552 126.589C441.055 99.7555 423.726 75.8198 401.823 56.5204C360.649 20.4435 306.813 4.72892 250.224 12.375H250.061L249.911 12.2796C232.193 2.24838 215.374 1.74409 199.796 10.7803C164.046 31.5787 141.694 99.0166 141.421 186.899C176.685 182.323 212.212 180.069 247.771 180.152Z" fill="#D9C89E"/>
<path d="M361.767 29.725C331.591 12.5793 256.903 5.39669 195.298 13.6561L195.162 12.6475C256.957 4.3336 331.918 11.598 362.271 28.8391L361.767 29.725Z" fill="#D9C89E"/>
<path d="M441.253 104.237C389.543 74.9064 261.618 62.5037 156.086 76.6918L155.95 75.6832C261.659 61.4678 389.884 73.8841 441.757 103.351L441.253 104.237Z" fill="#D9C89E"/>
<path d="M386.926 192.337H385.904C386.054 110.056 362.148 44.9081 321.942 18.0447C300.503 3.73389 275.752 1.68949 250.36 12.334L249.911 11.3936C275.643 0.680927 300.721 2.68444 322.46 17.1997C363.034 44.2403 387.076 109.716 386.926 192.337Z" fill="#D9C89E"/>
<path d="M268.283 180.861H267.261C267.465 65.0114 261.373 3.48862 255.226 2.69812C254.626 2.61634 252.936 3.35232 250.66 11.9933L249.665 11.7344C251.546 4.60623 253.359 1.40333 255.362 1.67592C264.508 2.8753 268.447 92.5291 268.283 180.861Z" fill="#D9C89E"/>
<path d="M28.3251 280.014L27.5618 279.592C8.79422 268.92 0.0850792 257.008 2.37481 245.15C4.54187 234.029 16.2086 223.439 35.5759 214.157C55.0113 137.792 106.803 71.4171 173.45 36.2126C180.987 24.4505 189.655 15.5233 199.346 9.93523C215.033 0.817204 232.711 1.33511 250.47 11.4208L251.833 12.1704L250.32 12.3749C223.711 16.0532 197.957 24.39 174.241 37.0031C153.688 69.2365 141.639 122.868 141.53 187.485V187.934H141.094C96.6489 193.904 60.6811 203.335 36.5708 214.743C31.2207 235.776 28.4743 257.385 28.3932 279.087L28.3251 280.014ZM35.2624 215.37C16.6583 224.393 5.46865 234.615 3.38336 245.355C1.20267 256.585 9.47567 267.952 27.3165 278.27C27.4511 257.061 30.1187 235.945 35.2624 215.37ZM172.373 37.9435C106.953 73.0799 56.088 138.446 36.7616 213.598C60.8992 202.286 96.5671 192.964 140.345 187.035C140.576 123.44 152.325 70.4495 172.373 37.9435ZM222.802 4.38809C214.693 4.4391 206.746 6.67048 199.796 10.8484C190.705 16.1366 182.486 24.4777 175.263 35.3812C198.176 23.3733 222.953 15.3232 248.548 11.5707C240.685 7.05346 231.813 4.58367 222.748 4.38809H222.802Z" fill="#D9C89E"/>
<path d="M137.932 59.8322C128.392 54.3805 123.921 48.2882 125.107 42.1959C127.587 29.4524 154.424 18.1265 195.162 12.6475L195.298 13.656C155.01 19.1078 128.514 30.0112 126.115 42.3867C125.025 48.0156 129.291 53.7399 138.382 58.9327L137.932 59.8322Z" fill="#D9C89E"/>
<path d="M58.1323 155.769C41.8862 146.542 34.3628 136.238 36.3254 125.962C40.5232 104.305 86.3451 85.0738 155.923 75.6832L156.059 76.6918C86.9584 85.987 41.4637 104.891 37.2931 126.153C35.3986 135.952 42.7448 145.888 58.5821 154.87L58.1323 155.769Z" fill="#D9C89E"/>
<path d="M44.2849 210.981H43.2627C43.3854 142.835 69.0358 82.525 113.617 45.535C151.452 14.1875 199.973 2.01654 250.251 11.3663L250.074 12.3748C200.095 3.07963 151.875 15.1007 114.272 46.3119C69.9217 83.0838 44.4076 143.135 44.2849 210.981Z" fill="#D9C89E"/>
<path d="M3.71043 243.91H2.68823C2.79727 182.142 27.4664 124.095 72.1978 80.4807C119.355 34.4408 182.595 9.93522 250.224 11.3936V12.4158C182.704 10.8484 119.805 35.3812 72.852 81.1758C28.3795 124.599 3.81947 182.374 3.71043 243.91Z" fill="#D9C89E"/>
<path d="M251.669 318.449C159.616 318.449 70.7532 304.124 27.5618 279.591L27.3029 279.442V279.142C27.5482 147.973 127.492 27.8441 250.088 11.3662H250.265L250.415 11.448C310.561 45.6167 359.286 180.056 359.041 311.143V311.593H358.605C323.15 316.234 287.426 318.524 251.669 318.449ZM28.3251 278.842C88.2941 312.738 236.022 326.994 358.019 310.666C358.155 180.166 309.771 46.5026 250.061 12.402C128.119 28.8935 28.7203 148.341 28.3251 278.842Z" fill="#D9C89E"/>
<path d="M251.11 79.4584C204.634 79.4584 159.794 72.2212 137.987 59.8322L138.491 58.9326C168.666 76.0783 243.341 83.2882 304.96 75.0016L305.096 76.0102C287.197 78.3533 269.162 79.5053 251.11 79.4584Z" fill="#D9C89E"/>
<path d="M251.642 189.393C172.155 189.393 95.4222 177.017 58.1051 155.837L58.6094 154.938C110.319 184.323 238.244 196.684 343.776 182.483L343.912 183.505C313.318 187.496 282.495 189.463 251.642 189.393Z" fill="#D9C89E"/>
<path d="M113.617 306.264H112.595C112.772 175.164 174.418 42.8773 249.911 11.3936L250.306 12.334C175.167 43.6814 113.781 175.532 113.617 306.264Z" fill="#D9C89E"/>
<path d="M232.193 317.74H231.17C231.402 186.789 239.702 49.5148 249.665 11.7343L250.66 11.9932C240.711 49.7056 232.424 186.858 232.193 317.74Z" fill="#D9C89E"/>
<path d="M358.019 311.702V311.116C358.264 180.356 309.771 46.2847 249.911 12.3068L248.548 11.5572L250.047 11.3664C306.936 3.72032 361.058 19.544 402.464 55.7571C424.482 75.1473 441.896 99.206 453.437 126.18C465.84 154.692 472.123 185.972 472.096 219.159C490.686 229.79 499.355 241.648 497.024 253.451C492.172 278.501 439.113 300.785 358.564 311.621L358.019 311.702ZM251.723 12.2114C311.174 47.5114 359.136 180.602 359.041 310.558C438.813 299.763 491.245 277.847 496.056 253.314C498.264 241.92 489.732 230.39 471.374 219.963L471.115 219.813V219.514C471.115 186.353 464.927 155.115 452.552 126.643C441.055 99.81 423.726 75.8743 401.823 56.5749C361.017 20.757 307.754 5.04236 251.723 12.2114Z" fill="#D9C89E"/>
<path d="M305.041 76.0104L304.905 75.0018C345.193 69.5501 371.689 58.6466 374.087 46.2712C375.178 40.6559 370.925 34.9315 361.821 29.7251L362.325 28.8392C371.866 34.291 376.336 40.3697 375.151 46.4756C372.575 59.219 345.779 70.5314 305.041 76.0104Z" fill="#D9C89E"/>
<path d="M343.953 183.437L343.817 182.414C412.945 173.119 458.44 154.174 462.556 132.953C464.45 123.154 457.104 113.232 441.267 104.237L441.771 103.351C458.017 112.578 465.54 122.881 463.578 133.158C459.339 154.815 413.463 174.073 343.953 183.437Z" fill="#D9C89E"/>
<path d="M456.177 287.619H455.155C455.4 156.927 363.402 33.4594 250.074 12.3748L250.251 11.3662C364.043 32.5326 456.422 156.464 456.177 287.619Z" fill="#D9C89E"/>
<path d="M496.752 254.732H495.729C495.975 124.095 385.809 15.3733 250.156 12.3749V11.3527C386.381 14.3647 496.997 123.536 496.752 254.732Z" fill="#D9C89E"/>
<path d="M249.175 487.248L249.025 487.166C188.892 452.998 140.154 318.558 140.399 187.485V187.035H140.849C263.295 170.557 411.8 184.936 471.878 219.064L472.137 219.214V219.514C471.892 350.669 371.948 470.798 249.352 487.275L249.175 487.248ZM141.421 187.934C141.299 318.422 189.669 452.085 249.379 486.185C371.321 469.68 470.706 350.219 471.115 219.759C411.105 185.863 263.417 171.675 141.421 187.934Z" fill="#D9C89E"/>
<path d="M440.803 343.717C389.093 314.346 261.168 301.984 155.637 316.172L155.5 315.164C261.223 300.949 389.434 313.365 441.321 342.831L440.803 343.717Z" fill="#D9C89E"/>
<path d="M361.003 439.654C330.828 422.509 256.153 415.299 194.535 423.585L194.398 422.577C256.194 414.263 331.169 421.527 361.508 438.769L361.003 439.654Z" fill="#D9C89E"/>
<path d="M249.475 487.194L249.079 486.253C324.286 454.906 385.659 323.056 385.904 192.337H386.926C386.681 323.437 325.022 455.71 249.475 487.194Z" fill="#D9C89E"/>
<path d="M249.775 486.853L248.793 486.594C258.729 448.881 267.016 311.729 267.261 180.861H268.283C268.038 311.811 259.738 449.072 249.775 486.853Z" fill="#D9C89E"/>
<path d="M221.453 489.115C174.936 489.115 131.499 473.128 96.935 442.776C74.9167 423.385 57.5024 399.327 45.9613 372.353C33.5586 343.854 27.2891 312.575 27.3028 279.387C8.71236 268.756 0.0441127 256.899 2.37473 245.096C7.2404 220.045 60.2994 197.747 140.849 186.926L141.421 186.844V187.43C141.176 318.176 189.683 452.221 249.529 486.226L250.892 486.976L249.393 487.166C240.134 488.441 230.799 489.092 221.453 489.115ZM140.399 188.03C60.6265 198.824 8.19444 220.74 3.38329 245.273C1.17533 256.667 9.7073 268.197 28.066 278.624L28.325 278.774V279.074C28.325 312.234 34.5127 343.472 46.9018 371.93C58.3848 398.764 75.7052 422.701 97.6029 441.999C138.423 477.762 191.645 493.477 247.73 486.335C188.279 451.076 140.304 318.013 140.399 188.03Z" fill="#D9C89E"/>
<path d="M57.7372 395.196C41.5046 385.982 33.9676 375.665 35.9302 365.402C40.1281 343.745 85.9635 324.514 155.528 315.123L155.664 316.132C86.536 325.427 41.0413 344.385 36.9388 365.593C35.0307 375.392 42.3906 385.328 58.2142 394.31L57.7372 395.196Z" fill="#D9C89E"/>
<path d="M137.182 469.748C127.642 464.296 123.171 458.218 124.344 452.125C126.824 439.368 153.66 428.056 194.398 422.577L194.535 423.585C154.246 429.037 127.751 440.009 125.352 452.316C124.262 457.945 128.528 463.656 137.619 468.862L137.182 469.748Z" fill="#D9C89E"/>
<path d="M249.188 487.221C135.424 466.068 43.0174 342.123 43.2627 210.981H44.2849C44.0396 341.659 136.038 465.128 249.379 486.212L249.188 487.221Z" fill="#D9C89E"/>
<path d="M249.27 487.234C113.059 484.222 2.44295 375.051 2.68827 243.869H3.71047C3.46515 374.506 113.631 483.214 249.297 486.212L249.27 487.234Z" fill="#D9C89E"/>
<path d="M276.72 495.126C267.01 494.938 257.516 492.223 249.175 487.248C239.986 488.488 230.725 489.111 221.453 489.115C174.936 489.115 131.499 473.128 96.9352 442.776C74.9169 423.385 57.5026 399.327 45.9615 372.353C33.5179 343.731 27.2484 312.384 27.303 279.087V278.215L28.0526 278.638C88.0217 312.711 236.186 327.008 358.455 310.557L359.027 310.476V311.062C358.864 399.584 336.307 467.608 300.149 488.597C293.063 492.829 284.973 495.083 276.72 495.126ZM249.379 486.185L249.529 486.28C267.247 496.312 284.066 496.816 299.644 487.78C335.408 467.009 357.76 399.571 358.019 311.702C236.2 327.976 88.7985 313.788 28.3252 280.014C28.3252 312.847 34.6219 343.786 46.902 371.999C58.385 398.832 75.7054 422.769 97.6031 442.067C138.777 478.144 192.627 493.858 249.216 486.212L249.379 486.185Z" fill="#D9C89E"/>
<path d="M251.192 428.806C171.706 428.806 94.9725 416.43 57.6554 395.236L58.1597 394.351C109.869 423.735 237.794 436.097 343.34 421.895L343.476 422.918C312.878 426.909 282.049 428.875 251.192 428.806Z" fill="#D9C89E"/>
<path d="M250.347 489.388C203.871 489.388 159.03 482.151 137.223 469.748L137.728 468.862C167.903 486.008 242.578 493.218 304.183 484.931L304.319 485.94C286.424 488.283 268.394 489.435 250.347 489.388Z" fill="#D9C89E"/>
<path d="M217.405 493.981C202.953 493.942 188.848 489.554 176.926 481.387C136.446 454.347 112.363 388.885 112.527 306.264H113.617C113.454 388.544 137.373 453.693 177.566 480.542C199.005 494.853 223.756 496.829 249.147 486.253L249.543 487.194C239.386 491.566 228.462 493.873 217.405 493.981Z" fill="#D9C89E"/>
<path d="M244.309 496.925H244.091C234.932 495.726 231.007 406.072 231.17 317.754H232.193C231.975 433.603 238.081 495.112 244.214 495.917C244.813 495.917 246.503 495.249 248.793 486.608L249.774 486.867C247.962 493.709 246.231 496.925 244.309 496.925Z" fill="#D9C89E"/>
<path d="M276.72 495.126C267.697 495.126 258.375 492.468 249.025 487.166L247.662 486.417L249.161 486.212C275.773 482.528 301.53 474.191 325.254 461.584C345.793 429.351 357.841 375.719 357.964 311.116V310.694H358.414C402.845 304.724 438.827 295.293 462.924 283.885C468.274 262.853 471.02 241.243 471.101 219.541V218.668L471.864 219.091C490.659 229.681 499.327 241.593 497.065 253.451C494.912 264.572 483.245 275.162 463.878 284.43C444.483 360.754 392.651 427.17 325.99 462.375C318.453 474.137 309.784 483.064 300.162 488.652C293.067 492.867 284.972 495.102 276.72 495.126ZM250.824 487.016C268.01 496.339 284.42 496.557 299.603 487.78C308.694 482.491 316.926 474.15 324.136 463.315C301.219 475.28 276.448 483.293 250.865 487.016H250.824ZM359 311.566C358.823 375.16 347.088 428.138 327.039 460.644C392.46 425.507 443.311 360.155 462.637 285.002C438.541 296.315 402.873 305.637 359.041 311.566H359ZM472.123 220.345C471.984 241.549 469.312 262.66 464.164 283.231C482.768 274.208 493.971 263.986 496.043 253.246C498.237 242.029 489.964 230.649 472.137 220.345H472.123Z" fill="#D9C89E"/>
<path d="M343.503 422.918L343.367 421.896C412.481 412.6 457.976 393.656 462.092 372.435C463.987 362.635 456.64 352.713 440.803 343.718L441.321 342.832C457.553 352.059 465.091 362.363 463.128 372.639C458.889 394.296 413.067 413.554 343.503 422.918Z" fill="#D9C89E"/>
<path d="M304.278 485.94L304.142 484.931C344.444 479.479 370.926 468.576 373.324 456.2C374.415 450.585 370.162 444.861 361.058 439.654L361.562 438.769C371.103 444.22 375.573 450.299 374.387 456.405C371.866 469.148 345.016 480.461 304.278 485.94Z" fill="#D9C89E"/>
<path d="M282.049 490.301C271.024 490.285 260.024 489.253 249.188 487.221L249.379 486.212C299.358 495.521 347.578 483.486 385.182 452.275C429.532 415.476 455.032 355.507 455.155 287.619H456.177C456.054 355.766 430.417 416.076 385.822 453.052C356.706 477.317 319.95 490.511 282.049 490.301Z" fill="#D9C89E"/>
<path d="M255.09 487.289C253.154 487.289 251.219 487.289 249.27 487.289V486.267C316.654 487.752 379.607 463.315 426.574 417.466C471.033 374.043 495.593 316.268 495.702 254.786H496.724C496.615 316.554 471.946 374.588 427.283 418.202C381.516 462.865 320.538 487.289 255.09 487.289Z" fill="#D9C89E"/>
<path d="M249.666 496.993H247.813C244.432 496.925 240.126 496.802 237.113 496.68C230.612 496.407 223.389 495.589 219.927 495.194C214.775 494.608 207.333 493.34 206.843 493.245C200.832 492.127 196.539 491.323 191.373 490.015C188.32 489.252 184.845 488.366 182.242 487.616C178.821 486.635 174.936 485.49 172.047 484.481L170.493 483.923C167.045 482.723 162.766 481.197 159.59 479.943C154.002 477.748 149.872 475.99 146.942 474.573C142.471 472.392 134.021 468.222 127.765 464.746C122.314 461.693 116.862 458.422 113.482 455.982C112.242 455.096 110.851 454.142 109.393 453.161C105.972 450.79 102.428 448.35 99.6208 446.142C97.0994 444.166 88.3494 437.242 81.7664 431.15C78.3045 427.947 72.8392 422.672 68.8458 418.325C65.2885 414.454 58.651 407.08 54.1261 401.097C45.834 390.458 38.4267 379.158 31.9784 367.31C26.0831 355.991 20.8675 344.331 16.3592 332.392C13.8835 325.608 11.7725 318.697 10.0352 311.689C8.99938 307.818 8.03169 303.075 7.09127 298.495C6.66876 296.396 6.24624 294.407 5.85099 292.526C4.44128 285.379 3.48983 278.15 3.00247 270.882C2.45729 263.482 2.08931 254.854 2.07568 248.898C2.07568 244.482 2.37553 238.935 2.64811 234.042C2.75715 232.161 2.85254 230.362 2.93432 228.713C3.41151 220.563 4.48658 212.459 6.15084 204.467L7.0095 200.487C8.05895 195.471 9.25835 189.788 10.4714 185.345C12.1887 178.993 14.7646 170.816 16.8771 164.996C18.9079 159.394 21.8109 152.253 24.1279 147.278C25.7498 143.748 29.934 134.821 33.7775 128.265C39.6381 118.234 48.3336 105.627 54.5077 97.1765C58.8356 91.547 63.4436 86.1384 68.3142 80.9712C73.4526 75.3718 78.8799 70.0445 84.574 65.0113C88.1449 61.9447 100.629 51.382 111.247 44.1857C116.426 40.6693 124.263 35.6946 130.723 32.2736L131.841 31.6739C135.411 29.7795 139.868 27.4216 143.357 25.7724C146.846 24.1233 153.62 21.0022 158.772 19.0395L160.694 18.2899C163.011 17.404 165.628 16.3818 167.754 15.6867C172.347 14.1739 180.02 11.5979 185.745 10.1396C195.972 7.40587 206.359 5.31198 216.847 3.8701L216.915 4.37438L216.847 3.8701C223.143 3.02508 230.04 2.35724 235.301 2.08465C239.948 1.83933 241.679 1.74392 246.341 1.67577C251.002 1.60763 255.745 1.67577 257.04 1.77118C260.311 1.88021 263.405 1.98925 267.943 2.32998C272.482 2.67072 274.853 2.91605 279.596 3.46122C283.685 3.95188 284.244 4.03365 292.585 5.39658C294.193 5.65554 296.115 6.03716 297.819 6.3779L299.699 6.74588C304.143 7.60453 312.525 9.66257 317.268 11.0528C323.728 12.9336 331.987 15.6731 337.848 17.8674C342.754 19.7074 348.547 22.1334 352.608 24.0551C358.06 26.6447 365.788 30.5836 371.799 33.8819C374.143 35.2448 376.46 36.6078 378.722 37.9707C381.298 39.5108 383.806 41.0509 385.919 42.4956C393.06 47.4158 401.374 53.549 407.099 58.1285C415.63 64.9431 426.071 75.574 433.185 82.9611C438.644 88.6945 443.69 94.8066 448.286 101.252L450.631 104.618C454.011 109.429 457.827 114.895 460.635 119.365C464.027 124.711 467.147 130.224 469.984 135.884L471.156 138.31C473.705 143.598 476.867 150.195 479.007 155.347C481.147 160.498 483.804 167.749 485.644 173.474C487.484 179.198 489.829 187.703 491.328 194.163C492.895 200.978 494.367 209.973 494.94 213.557C496.688 225.526 497.544 237.607 497.502 249.702C497.182 263.071 496.081 276.41 494.204 289.65C493.21 296.757 491.735 303.787 489.788 310.694C489.27 312.438 488.711 314.401 488.139 316.418C486.857 320.888 485.535 325.522 484.227 329.298C482.019 335.993 479.449 342.563 476.526 348.978C475.79 350.505 475 352.195 474.169 353.94C472.26 358.028 470.08 362.553 468.185 366.083C465.05 371.862 460.73 379.154 457.432 384.21C454.133 389.267 449.881 395.264 446.651 399.448C444.838 401.779 438.473 409.888 433.022 415.803C427.802 421.418 423.481 425.766 420.374 428.737C415.14 433.644 408.707 439.246 404.018 443.007C400.352 445.938 394.846 450.122 390.389 453.107C384.542 457.059 376.61 461.925 371.144 465.155C362.279 470.121 353.131 474.567 343.749 478.471C340.478 479.752 332.137 482.982 325.527 485.108C320.362 486.771 313.083 488.802 307.414 490.178C301.744 491.555 294.956 492.904 290.173 493.708C280.973 495.194 277.565 495.507 270.11 496.203C268.434 496.352 262.273 496.87 253.251 497.02L249.666 496.993ZM249.325 2.67072H246.286C241.638 2.73886 239.921 2.83427 235.301 3.07959C230.04 3.35218 223.184 4.02002 216.915 4.85141C206.473 6.28949 196.131 8.37886 185.949 11.1073C180.279 12.5929 172.592 15.1143 167.999 16.559C165.9 17.2541 163.297 18.2627 160.994 19.1486L159.072 19.8982C153.947 21.8472 147.255 24.941 143.725 26.6038C140.195 28.2666 135.82 30.5972 132.249 32.4781L131.132 33.0778C124.477 36.6981 118.008 40.6511 111.751 44.9216C101.175 52.1043 88.731 62.6398 85.1737 65.6791C79.5079 70.6816 74.1122 75.9818 69.0093 81.5573C64.1564 86.6965 59.5665 92.0778 55.2573 97.6808C49.0969 106.104 40.4423 118.67 34.5953 128.674C30.7791 135.189 26.5949 144.075 24.9866 147.605C22.6832 152.593 19.7938 159.708 17.763 165.323C15.7323 170.938 13.1018 179.266 11.3845 185.59C10.1851 190.006 8.98576 195.676 7.9363 200.664C7.63646 202.027 7.36385 203.39 7.09127 204.657C5.425 212.594 4.3544 220.644 3.88839 228.74C3.80661 230.39 3.7112 232.189 3.60216 234.07C3.32958 238.949 3.02973 244.482 3.02973 248.857C3.02973 254.8 3.41134 263.4 3.95652 270.773C4.44115 277.995 5.38348 285.178 6.7778 292.28C7.18668 294.12 7.59556 296.151 8.0317 298.264C8.95849 302.83 9.92617 307.545 10.9484 311.402C12.6853 318.373 14.801 325.243 17.286 331.983C21.7759 343.881 26.9734 355.501 32.8507 366.778C39.2767 378.582 46.6566 389.841 54.9166 400.443C59.4143 406.385 66.0245 413.745 69.5681 417.589C73.5343 421.909 78.986 427.129 82.4342 430.359C88.9763 436.424 97.7127 443.334 100.152 445.351C102.946 447.546 106.463 449.972 109.884 452.33L113.972 455.165C118.548 458.299 123.279 461.201 128.147 463.86C134.389 467.322 142.812 471.493 147.228 473.66C150.131 475.023 154.247 476.822 159.794 479.016C163.011 480.27 167.277 481.742 170.698 482.982L172.265 483.527C175.127 484.536 178.998 485.667 182.405 486.648C184.995 487.384 188.457 488.27 191.496 489.034C196.634 490.328 200.914 491.132 206.843 492.25C207.402 492.359 214.789 493.613 219.913 494.185C223.375 494.581 230.571 495.398 237.032 495.671C240.044 495.794 244.337 495.916 247.717 495.984C249.448 495.984 251.806 495.984 253.033 495.984C262.028 495.835 268.161 495.33 269.824 495.167C277.266 494.485 280.646 494.158 289.818 492.686C294.588 491.909 301.321 490.533 306.977 489.17C312.634 487.807 319.884 485.776 325.023 484.127C331.606 482.001 339.92 478.784 343.191 477.503C352.526 473.625 361.628 469.206 370.449 464.269C375.901 461.039 383.806 456.187 389.639 452.248C394.042 449.277 399.521 445.106 403.187 442.19C407.875 438.455 414.281 432.867 419.542 427.974C422.69 425.03 426.929 420.696 432.136 415.094C437.587 409.247 443.911 401.179 445.765 398.848C448.982 394.759 453.288 388.585 456.491 383.679C459.694 378.772 464.083 371.412 467.204 365.62C469.098 362.117 471.293 357.551 473.16 353.531L475.531 348.57C478.433 342.183 480.99 335.645 483.191 328.984C484.486 325.236 485.794 320.616 487.076 316.159C487.648 314.142 488.207 312.179 488.725 310.421C490.655 303.577 492.122 296.61 493.113 289.568C494.978 276.368 496.075 263.071 496.398 249.743C496.445 237.703 495.593 225.676 493.849 213.762C493.277 210.205 491.805 201.182 490.251 194.449C488.752 188.002 486.476 179.729 484.595 173.842C482.714 167.954 480.111 160.88 477.985 155.783C475.859 150.685 472.697 144.089 470.148 138.801L468.989 136.374C466.162 130.771 463.055 125.312 459.681 120.019C456.887 115.562 453.084 110.111 449.717 105.313L447.36 101.947C442.8 95.5421 437.79 89.4707 432.367 83.7789C425.266 76.4054 414.854 65.829 406.376 59.028L404.277 57.3789C446.174 94.7505 470.707 150.454 472.07 213.353C472.07 215.234 472.138 217.101 472.138 218.995V219.459C471.892 350.614 371.949 470.743 249.353 487.221L249.216 486.212C371.322 469.857 470.87 350.123 471.116 219.459V218.995C471.116 142.126 436.524 75.4514 378.123 38.8566L375.683 37.4119C374.102 36.4715 372.589 35.5719 371.226 34.686C365.243 31.415 357.597 27.4761 352.145 24.9002C348.056 22.9921 342.332 20.566 337.466 18.7397C331.633 16.5317 323.387 13.7923 317.022 11.925C312.293 10.5621 303.965 8.5177 299.549 7.65906L297.614 7.31832C295.924 6.99122 294.016 6.60959 292.49 6.36426C284.107 5.00133 283.603 4.90593 279.473 4.4289C274.744 3.8701 272.536 3.6384 267.861 3.29766C263.186 2.95693 260.27 2.8479 256.958 2.72523C255.936 2.67072 252.774 2.67072 249.325 2.67072Z" fill="#D9C89E"/>
<path d="M249.175 488.557L249.025 488.475C188.579 454.115 139.513 318.939 139.799 187.144V186.667H140.249C263.376 170.107 412.686 184.554 473.105 218.873L473.364 219.023V219.323C473.118 351.173 372.575 471.956 249.352 488.529L249.175 488.557ZM140.876 187.594C140.753 318.803 189.396 453.202 249.434 487.439C372.098 470.852 472.001 350.75 472.382 219.541C412.004 185.508 263.54 171.17 140.876 187.594Z" fill="#D9C89E"/>
<path d="M361.671 440.704C331.332 423.463 256.234 416.171 194.289 424.539L194.153 423.531C256.289 415.176 331.673 422.481 362.175 439.804L361.671 440.704Z" fill="#D9C89E"/>
<path d="M441.866 344.235C389.87 314.701 261.236 302.271 155.118 316.541L154.982 315.532C261.291 301.235 390.211 313.719 442.37 343.35L441.866 344.235Z" fill="#D9C89E"/>
<path d="M249.474 488.502L249.079 487.562C324.695 456.037 386.408 323.464 386.654 192.023H387.676C387.43 323.846 325.431 456.841 249.474 488.502Z" fill="#D9C89E"/>
<path d="M249.774 488.161L248.779 487.902C258.783 449.985 267.111 312.084 267.356 180.479H268.378C268.133 312.152 259.792 450.176 249.774 488.161Z" fill="#D9C89E"/>
<path d="M221.289 490.437C174.513 490.437 130.845 474.355 96.0762 443.893C73.9291 424.38 56.4207 400.166 44.8299 373.021C32.3591 344.399 26.0487 312.902 26.0759 279.537C7.37649 268.838 -1.29176 256.926 0.997963 245.068C5.94541 219.936 59.2497 197.57 140.249 186.667L140.821 186.585V187.171C140.576 318.64 189.342 453.42 249.529 487.616L250.892 488.366L249.393 488.556C240.077 489.809 230.688 490.437 221.289 490.437ZM139.785 187.73C59.5632 198.633 6.79043 220.645 2.00653 245.327C-0.21505 256.776 8.37143 268.375 26.8392 278.856L27.0981 279.005V279.346C27.03 312.684 33.3131 344.099 45.7567 372.721C57.307 399.704 74.7303 423.772 96.7577 443.171C137.796 479.125 191.359 494.962 247.716 487.752C187.938 452.221 139.704 318.394 139.799 187.73H139.785Z" fill="#D9C89E"/>
<path d="M136.555 470.961C126.933 465.509 122.476 459.362 123.662 453.243C126.142 440.431 153.129 429.051 194.098 423.544L194.235 424.553C153.715 430.005 127.069 441.072 124.725 453.447C123.621 459.103 127.914 464.855 137.114 470.089L136.555 470.961Z" fill="#D9C89E"/>
<path d="M56.6329 396.041C40.2777 386.773 32.727 376.414 34.7305 366.056C38.9556 344.249 85.0228 324.909 154.982 315.505L155.118 316.513C85.6088 325.863 39.8688 344.917 35.7255 366.247C33.8174 376.101 41.1772 386.091 57.1372 395.127L56.6329 396.041Z" fill="#D9C89E"/>
<path d="M249.188 488.529C134.702 467.24 41.886 342.695 42.1313 210.777H43.1535C42.9082 342.178 135.41 466.327 249.365 487.521L249.188 488.529Z" fill="#D9C89E"/>
<path d="M249.27 488.543C112.254 485.517 1.07978 375.746 1.32511 243.828H2.34731C2.10198 375.174 112.881 484.495 249.284 487.507L249.27 488.543Z" fill="#D9C89E"/>
<path d="M276.869 496.489C267.106 496.295 257.561 493.561 249.175 488.557C192.04 496.203 137.687 480.379 96.0899 443.893C73.9429 424.38 56.4344 400.167 44.8436 373.021C32.3319 344.276 26.0215 312.711 26.0897 279.237V278.365L26.8529 278.787C87.0945 313.024 236.131 327.417 359.054 310.885L359.64 310.803V311.389C359.477 400.388 336.784 468.794 300.435 489.933C293.308 494.189 285.17 496.454 276.869 496.489ZM249.379 487.493L249.529 487.589C267.247 497.675 284.256 498.193 299.957 489.088C335.925 468.208 358.4 400.388 358.659 312.043C236.159 328.398 87.9532 314.128 27.1527 280.178C27.1527 313.188 33.4768 344.304 45.8113 372.68C57.3616 399.664 74.7849 423.731 96.8123 443.13C138.218 479.411 192.354 495.18 249.256 487.521L249.379 487.493Z" fill="#D9C89E"/>
<path d="M250.347 490.696C203.625 490.696 158.499 483.432 136.555 470.961L137.06 470.075C167.399 487.316 242.496 494.608 304.442 486.226L304.578 487.248C286.596 489.589 268.48 490.741 250.347 490.696Z" fill="#D9C89E"/>
<path d="M251.192 429.787C171.283 429.787 94.1272 417.343 56.6329 396.041L57.1372 395.155C109.133 424.703 237.753 437.12 343.885 422.85L344.007 423.858C313.233 427.878 282.227 429.859 251.192 429.787Z" fill="#D9C89E"/>
<path d="M217.2 495.33C202.671 495.29 188.491 490.878 176.503 482.669C135.792 455.478 111.586 389.648 111.736 306.578H112.759C112.609 389.308 136.651 454.81 177.075 481.81C198.623 496.216 223.524 498.165 249.052 487.562L249.447 488.502C239.257 492.892 228.295 495.213 217.2 495.33Z" fill="#D9C89E"/>
<path d="M244.282 498.288H244.05C234.85 497.088 230.898 406.971 231.061 318.122H232.083C231.865 434.652 238.012 496.448 244.186 497.252C244.84 497.375 246.503 496.57 248.779 487.902L249.774 488.161C247.962 495.044 246.203 498.288 244.282 498.288Z" fill="#D9C89E"/>
<path d="M276.869 496.489C267.792 496.489 258.415 493.763 249.025 488.475L247.662 487.725L249.174 487.521C275.932 483.824 301.828 475.441 325.676 462.756C346.338 430.346 358.454 376.428 358.577 311.471V311.021H359.013C403.704 305.01 439.917 295.538 464.123 284.062C469.487 262.912 472.233 241.183 472.3 219.363V218.491L473.064 218.914C491.94 229.64 500.69 241.62 498.387 253.532C496.22 264.722 484.485 275.339 465.009 284.702C445.519 361.477 393.386 428.219 326.371 463.615C318.793 475.445 310.016 484.413 300.394 490.042C293.269 494.253 285.146 496.479 276.869 496.489ZM250.865 488.311C268.147 497.688 284.652 497.947 299.93 489.074C309.075 483.773 317.348 475.445 324.599 464.473C301.544 476.531 276.613 484.596 250.865 488.325V488.311ZM359.64 311.893C359.463 375.842 347.66 429.105 327.502 461.816C393.277 426.475 444.428 360.754 463.796 285.193C439.576 296.574 403.717 305.951 359.64 311.907V311.893ZM473.35 220.168C473.217 241.491 470.531 262.723 465.349 283.408C484.076 274.344 495.334 264.054 497.419 253.26C499.613 241.988 491.286 230.553 473.35 220.181V220.168Z" fill="#D9C89E"/>
<path d="M304.578 487.248L304.441 486.226C344.961 480.774 371.62 469.721 374.019 457.345C375.109 451.689 370.816 445.938 361.616 440.704L362.121 439.804C371.743 445.256 376.2 451.403 375.014 457.523C372.574 470.348 345.547 481.728 304.578 487.248Z" fill="#D9C89E"/>
<path d="M343.953 423.817L343.83 422.809C413.34 413.459 459.066 394.405 463.21 373.075C465.118 363.221 457.758 353.231 441.812 344.194L442.316 343.309C458.671 352.59 466.208 362.948 464.218 373.293C460.048 395.086 413.967 414.454 343.953 423.817Z" fill="#D9C89E"/>
<path d="M282.226 491.623C271.141 491.608 260.082 490.573 249.188 488.529L249.365 487.521C299.617 496.87 348.11 484.795 385.918 453.447C430.513 416.444 456.163 356.107 456.299 287.878H457.322C457.185 356.406 431.426 417.043 386.572 454.156C357.297 478.56 320.338 491.831 282.226 491.623Z" fill="#D9C89E"/>
<path d="M255.117 488.598C253.168 488.598 251.219 488.598 249.27 488.598V487.575C317.076 489.061 380.343 464.501 427.555 418.393C472.273 374.779 496.969 316.65 497.065 254.841H498.087C497.978 316.936 473.173 375.283 428.264 419.142C382.238 464.037 320.933 488.598 255.117 488.598Z" fill="#D9C89E"/>
<path d="M473.35 220.168L472.587 219.745C412.345 185.508 263.322 171.116 140.385 187.648L139.799 187.73V187.144C139.963 98.1307 162.655 29.7251 199.019 8.59959C214.747 -0.532065 232.465 -0.04141 250.265 9.96252C307.385 2.33009 361.753 18.1401 403.349 54.6259C425.492 74.1425 443 98.3553 454.596 125.498C467.108 154.243 473.418 185.795 473.363 219.282L473.35 220.168ZM247.757 179.77C339.782 179.77 428.632 194.013 472.341 218.423C472.341 185.399 466.004 154.284 453.669 125.921C442.119 98.9333 424.696 74.8612 402.668 55.4572C361.262 19.176 307.154 3.42045 250.238 11.0665H250.06L249.91 10.9847C232.192 0.885385 215.183 0.381099 199.482 9.47186C163.569 30.3793 141.094 98.1988 140.876 186.558C176.316 181.957 212.02 179.689 247.757 179.77Z" fill="#D9C89E"/>
<path d="M442.316 103.446C390.293 73.8977 261.673 61.4814 155.568 75.7513L155.432 74.7291C261.741 60.4319 390.647 72.9164 442.82 102.547L442.316 103.446Z" fill="#D9C89E"/>
<path d="M362.38 28.5666C332.041 11.3255 256.957 4.03381 194.998 12.4158L194.862 11.4073C256.998 3.0525 332.382 10.3442 362.884 27.6807L362.38 28.5666Z" fill="#D9C89E"/>
<path d="M387.676 192.023H386.654C386.804 109.293 362.761 43.7769 322.337 16.7772C300.789 2.37099 275.902 0.422 250.36 11.0393L249.965 10.0852C275.861 -0.695601 301.048 1.33517 322.909 15.9186C363.62 43.1227 387.826 108.98 387.676 192.023Z" fill="#D9C89E"/>
<path d="M268.378 180.479H267.356C267.629 64.0028 261.427 2.13924 255.253 1.30785C254.64 1.21245 252.95 1.97569 250.66 10.6576L249.665 10.3986C251.56 3.24321 253.4 0.040323 255.39 0.285651C264.589 1.51229 268.542 91.6703 268.378 180.479Z" fill="#D9C89E"/>
<path d="M27.1117 280.178L26.3485 279.755C7.45822 269.029 -1.29182 257.049 1.01154 245.137C3.19223 233.947 14.9135 223.33 34.3898 213.966C53.8797 137.179 106.012 70.4359 173.041 35.0406C180.619 23.2103 189.396 14.2422 199.019 8.61329C214.788 -0.545626 232.56 -0.027714 250.415 10.1125L251.778 10.8621L250.278 11.0666C223.502 14.7566 197.587 23.1398 173.722 35.8311C153.06 68.2416 141.012 122.159 140.821 187.117V187.566H140.385C95.6945 193.577 59.495 203.049 35.2893 214.525C29.9252 235.675 27.1788 257.404 27.1117 279.224V280.178ZM34.0899 215.179C15.3769 224.243 4.1054 234.533 2.02011 245.328C-0.174214 256.613 8.15331 268.048 26.0895 278.42C26.2227 257.096 28.9086 235.865 34.0899 215.179ZM171.951 36.7442C106.162 72.1805 55.011 137.833 35.5892 213.408C59.863 202.027 95.7218 192.65 139.799 186.694C139.976 122.732 151.779 69.4546 171.951 36.7442ZM222.652 3.03889C214.49 3.06784 206.486 5.29474 199.482 9.48556C190.337 14.801 182.064 23.1149 174.813 34.0184C197.878 22.0039 222.807 13.9723 248.548 10.2624C239.679 5.45582 231.047 3.04797 222.652 3.03889Z" fill="#D9C89E"/>
<path d="M57.0691 155.319C40.7139 146.038 33.1769 135.679 35.1804 125.335C39.3919 103.528 85.4726 84.1878 155.432 74.7836L155.568 75.8058C86.0587 85.1419 40.3187 104.209 36.1753 125.539C34.2672 135.393 41.6271 145.37 57.5734 154.406L57.0691 155.319Z" fill="#D9C89E"/>
<path d="M137.319 58.7827C127.696 53.3309 123.239 47.1841 124.425 41.0645C126.906 28.253 153.905 16.8725 194.862 11.3662L194.998 12.3748C154.478 17.8265 127.833 28.8935 125.488 41.2553C124.384 46.9115 128.678 52.6767 137.877 57.9104L137.319 58.7827Z" fill="#D9C89E"/>
<path d="M43.1535 210.777H42.1313C42.254 142.235 68.0271 81.5983 112.881 44.4175C150.921 12.8519 199.714 0.653668 250.251 10.0579L250.074 11.0665C199.823 1.71676 151.33 13.7924 113.522 45.1398C68.9266 82.198 43.2762 142.549 43.1535 210.777Z" fill="#D9C89E"/>
<path d="M2.34727 243.91H1.32507C1.44774 181.815 26.2395 123.454 71.1618 79.5949C118.578 33.2552 182.145 8.62695 250.169 10.0853V11.1075C182.404 9.60826 119.11 34.1819 71.8978 80.29C27.1527 123.972 2.46994 182.006 2.34727 243.91Z" fill="#D9C89E"/>
<path d="M251.682 318.871C159.126 318.871 69.7716 304.424 26.3895 279.755L26.1305 279.605V279.346C26.3895 147.414 126.824 26.6311 250.101 10.0579H250.265L250.415 10.1396C310.888 44.4992 359.886 179.689 359.64 311.484V311.934H359.19C323.547 316.616 287.632 318.934 251.682 318.871ZM27.1118 279.006C87.4489 313.079 235.94 327.431 358.618 311.007C358.754 179.798 310.111 45.3851 250.06 11.1618C127.451 27.6806 27.4934 147.782 27.1118 279.006Z" fill="#D9C89E"/>
<path d="M251.641 188.984C171.733 188.984 94.577 176.554 57.0691 155.251L57.5734 154.352C109.528 183.941 238.203 196.33 344.321 182.046L344.457 183.069C313.683 187.084 282.677 189.06 251.641 188.984Z" fill="#D9C89E"/>
<path d="M251.11 78.518C204.389 78.518 159.262 71.24 137.319 58.7828L137.823 57.8969C168.175 75.1243 243.259 82.4297 305.218 74.0476L305.355 75.0562C287.369 77.408 269.248 78.5645 251.11 78.518Z" fill="#D9C89E"/>
<path d="M112.786 306.605H111.764C112.009 174.782 174.009 41.7734 249.965 10.1124L250.36 11.0665C174.745 42.5502 113.031 175.123 112.786 306.605Z" fill="#D9C89E"/>
<path d="M232.083 318.122H231.061C231.306 186.449 239.661 48.4245 249.665 10.4396L250.66 10.6985C240.656 48.6017 232.329 186.517 232.083 318.122Z" fill="#D9C89E"/>
<path d="M358.618 312.057V311.471C358.863 179.989 310.098 45.2081 249.911 11.0257L248.548 10.2761L250.06 10.0716C307.304 2.38469 361.671 18.2492 403.309 54.7077C425.452 74.2243 442.959 98.4371 454.555 125.58C467.026 154.202 473.336 185.699 473.323 219.064C492.022 229.749 500.69 241.675 498.387 253.532C493.494 278.733 440.149 301.14 359.15 312.03L358.618 312.057ZM251.723 10.8485C311.501 46.2848 359.736 180.179 359.64 310.844C439.863 299.94 492.635 277.929 497.419 253.246C499.641 241.798 491.054 230.199 472.587 219.718L472.341 219.568V219.268C472.341 185.931 466.113 154.515 453.669 125.894C442.119 98.9062 424.696 74.8341 402.668 55.4301C361.671 19.5031 308.081 3.69311 251.723 10.8485Z" fill="#D9C89E"/>
<path d="M344.457 183.069L344.321 182.046C413.83 172.71 459.57 153.643 463.714 132.313C465.622 122.473 458.262 112.482 442.316 103.446L442.82 102.547C459.175 111.828 466.712 122.186 464.709 132.531C460.497 154.283 414.416 173.664 344.457 183.069Z" fill="#D9C89E"/>
<path d="M305.355 75.0562L305.218 74.0476C345.725 68.5959 372.384 57.5289 374.728 45.1534C375.818 39.4972 371.539 33.7457 362.325 28.512L362.829 27.6261C372.452 33.0778 376.922 39.2247 375.723 45.3442C373.297 58.1694 346.311 69.5499 305.355 75.0562Z" fill="#D9C89E"/>
<path d="M457.322 287.824H456.299C456.545 156.423 364.029 32.2601 250.074 11.0664L250.251 10.0579C364.669 31.2924 457.567 155.946 457.322 287.824Z" fill="#D9C89E"/>
<path d="M498.114 254.814H497.092C497.337 123.454 386.558 14.1332 250.156 11.1211V10.0989C387.131 13.0701 498.36 122.854 498.114 254.814Z" fill="#D9C89E"/>
<path d="M249.761 498.356C237.65 498.352 225.556 497.464 213.575 495.698C202.958 494.145 194.63 492.168 191.073 491.323C181.219 488.993 171.719 485.79 171.637 485.749C163.028 482.903 154.583 479.582 146.341 475.799C140.522 473.21 132.712 469.23 127.029 465.918C122.245 463.192 116.807 459.949 112.84 457.209C105.658 452.262 97.303 446.101 91.5514 441.494C82.9786 434.68 72.4704 423.953 65.315 416.525C59.8244 410.76 54.7506 404.611 50.1319 398.126L47.7876 394.787C44.3939 389.935 40.5505 384.428 37.7156 379.917C34.0765 374.125 29.9332 366.397 28.3113 363.344C25.1357 357.32 21.4967 349.278 19.2342 343.745C17.7213 340.092 16.1403 335.567 14.6139 331.26C13.9051 329.243 13.2509 327.294 12.5695 325.536C10.1852 318.73 8.27702 311.767 6.85876 304.697C4.21515 291.639 2.30858 278.443 1.14808 265.172C0.425723 254.827 0.139503 239.767 1.51607 228.509C1.74776 226.587 1.96584 224.42 2.18391 222.28C2.71545 217.169 3.30151 211.377 4.2692 206.852C4.66445 205.025 5.07332 202.995 5.49583 200.896C6.42262 196.262 7.37668 191.478 8.39888 187.553C10.1026 180.59 12.1818 173.724 14.6275 166.986C15.2681 165.364 15.9904 163.565 16.6583 161.698C18.3347 157.296 20.0792 152.743 21.7284 149.036C24.4542 142.917 28.2704 135.189 31.2689 129.832C34.2674 124.476 38.0836 118.098 41.0002 113.614C44.9255 107.495 49.1606 101.582 53.6892 95.8954C61.366 86.4529 69.5559 77.4394 78.2219 68.8957C82.7196 64.657 89.1936 59.0144 94.6998 54.544C98.8976 51.123 104.39 47.0479 108.329 44.3765C113.781 40.683 121.618 35.8173 127.669 32.2601C131.431 30.0657 136.596 27.3399 140.535 25.4454C144.801 23.4419 149.681 21.1794 153.429 19.5711C156.332 18.3445 160.243 16.8453 163.283 15.7004L164.332 15.3052C171.256 12.6747 180.142 10.126 182.704 9.41729C186.671 8.31331 189.628 7.53644 191.754 7.05942C196.238 6.06448 203.462 4.52436 209.077 3.51579C212.839 2.83432 221.875 1.56679 229.344 0.994363C246.107 -0.381711 262.967 -0.052921 279.663 1.97568C291.371 3.40676 300.107 5.31486 300.107 5.32849C305.736 6.59601 312.292 8.19065 316.803 9.41729C320.511 10.4259 325.254 11.9524 327.707 12.7701C331.496 14.024 336.566 15.864 340.3 17.3359C344.526 18.9987 350.073 21.4247 353.003 22.7877C356.765 24.4641 361.181 26.7129 365.269 28.88C367.627 30.093 369.971 31.3605 372.275 32.6689L373.024 33.1323C381.829 38.5841 392.773 45.2488 400.542 51.3684C406.634 56.1659 413.681 62.081 418.505 66.4424C422.731 70.2723 427.951 75.4514 431.508 79.363C436.592 84.951 442.411 91.7385 446.296 96.6723C449.458 100.679 453.778 106.676 457.295 111.951C460.811 117.225 465.118 124.408 468.566 130.65C470.938 134.957 473.595 140.545 475.939 145.465L477.057 147.823C479.878 153.711 482.945 161.97 485.003 167.858C486.366 171.62 487.729 176.24 488.956 180.711C489.555 182.769 490.128 184.8 490.673 186.544C492.711 193.495 494.228 200.588 495.211 207.765C495.443 209.605 495.729 211.622 496.029 213.721C496.697 218.519 497.392 223.466 497.733 227.596C498.278 234.233 498.66 243.119 498.673 249.702C498.449 263.154 497.338 276.576 495.348 289.882C494.187 297.899 492.48 305.827 490.237 313.61C489.801 315.055 489.323 316.636 488.874 318.272C487.511 322.906 485.943 328.153 484.485 332.242C482.188 338.945 479.531 345.519 476.526 351.936L474.795 355.793C472.655 360.195 470.229 365.184 468.103 369.027C464.886 374.806 460.457 382.084 457.09 387.127C449.661 398.267 441.348 408.791 432.23 418.597C430.499 420.437 424.448 426.775 419.405 431.436C414.049 436.343 407.52 441.917 402.764 445.638C399.043 448.527 393.496 452.67 389.066 455.587C383.11 459.512 375.055 464.351 369.508 467.554C360.357 472.556 350.913 477.003 341.227 480.87C336.212 482.778 328.811 485.463 323.141 487.221C318.016 488.802 310.807 490.737 305.205 492.032C287.022 496.23 268.422 498.352 249.761 498.356ZM127.547 465.032C133.244 468.331 140.958 472.283 146.764 474.859C154.976 478.63 163.389 481.947 171.964 484.795C172.06 484.795 181.505 488.011 191.291 490.328C194.848 491.173 203.148 493.136 213.725 494.69C244.125 499.19 275.1 497.947 305.041 491.023C310.616 489.742 317.785 487.821 322.882 486.24C328.538 484.481 335.912 481.824 340.927 479.916C350.535 476.062 359.906 471.643 368.99 466.681C374.537 463.465 382.619 458.654 388.507 454.742C392.91 451.839 398.429 447.709 402.137 444.82C406.88 441.126 413.394 435.566 418.737 430.673C422.117 427.579 426.915 422.795 431.494 417.902C440.574 408.132 448.856 397.649 456.259 386.555C459.612 381.512 464.014 374.288 467.162 368.509C469.288 364.693 471.701 359.718 473.827 355.33L475.708 351.473C478.688 345.084 481.327 338.542 483.613 331.874C485.071 327.785 486.625 322.578 487.988 317.972C488.478 316.336 488.942 314.755 489.351 313.297C491.577 305.566 493.275 297.693 494.435 289.732C496.418 276.476 497.524 263.104 497.746 249.702C497.746 243.119 497.365 234.274 496.82 227.664C496.479 223.575 495.784 218.628 495.116 213.857C494.816 211.745 494.53 209.769 494.298 207.874C493.316 200.762 491.808 193.733 489.787 186.844C489.242 185.045 488.669 183.055 488.07 180.997C486.788 176.54 485.453 171.933 484.144 168.199C482.073 162.338 479.033 154.12 476.239 148.273L475.108 145.901C472.777 140.995 470.12 135.434 467.762 131.141C464.327 124.912 459.925 117.607 456.531 112.523C453.138 107.439 448.749 101.293 445.628 97.3129C441.743 92.3927 435.951 85.6189 430.881 80.0445C427.351 76.1738 422.158 71.0082 417.96 67.2057C413.135 62.8579 406.116 56.9564 400.051 52.2134C392.31 46.0938 381.393 39.3882 372.575 34.0182L371.852 33.5685C369.808 32.4509 367.409 31.1425 364.888 29.8068C330.392 12.0886 291.017 5.64197 250.401 11.0528H250.32H250.142L250.006 10.0442C279.222 5.91062 308.991 8.36001 337.138 17.2133C333.949 16.0139 330.392 14.7464 327.598 13.8059C325.104 12.9745 320.388 11.4617 316.694 10.4668C312.197 9.25374 305.668 7.74088 300.053 6.37795C299.971 6.37795 291.412 4.48347 279.677 3.03876C263.016 1.02207 246.192 0.706971 229.467 2.09834C222.025 2.67077 213.03 3.92467 209.309 4.60613C203.707 5.6147 196.497 7.14119 192.027 8.13614C189.901 8.61316 186.97 9.37641 183.018 10.4804C180.469 11.1891 171.61 13.7242 164.741 16.341L163.678 16.7362C160.598 17.9084 156.754 19.3667 153.865 20.5933C150.13 22.188 145.278 24.4504 141.012 26.454C137.101 28.2939 131.962 30.9925 128.228 33.1868C122.19 36.7305 114.435 41.5825 108.929 45.2624C104.976 47.9883 99.511 51.9817 95.2995 55.3754C89.8478 59.8458 83.3738 65.4475 78.9443 69.6726C70.2814 78.1906 62.0915 87.1767 54.4115 96.5905C49.9077 102.254 45.6909 108.14 41.7771 114.227C38.8741 118.616 34.9625 125.13 32.1003 130.378C29.2381 135.625 25.3674 143.407 22.6415 149.459C21.006 153.125 19.2751 157.636 17.5987 162.066C16.89 163.933 16.2357 165.732 15.5679 167.368C13.1303 174.063 11.0646 180.888 9.3802 187.812C8.358 191.71 7.40394 196.48 6.47714 201.1C6.05463 203.199 5.64575 205.189 5.26413 207.07C4.31008 211.54 3.71038 217.306 3.19247 222.389C2.96077 224.584 2.7427 226.71 2.511 228.632C1.14807 239.821 1.43429 254.8 2.15665 265.104C3.31214 278.316 5.20961 291.452 7.84008 304.452C9.25896 311.47 11.1579 318.383 13.5235 325.141C14.1641 326.885 14.8864 328.848 15.5543 330.865C17.0808 335.199 18.6618 339.67 20.1746 343.309C22.4644 348.76 26.0352 356.815 29.2109 362.799C30.8191 365.852 34.9488 373.552 38.5742 379.317C41.3819 383.815 45.2253 389.308 48.619 394.146L50.9633 397.499C55.5491 403.936 60.5864 410.039 66.0373 415.762C73.1655 423.177 83.6464 433.821 92.1784 440.649C97.9027 445.229 106.244 451.389 113.399 456.31C117.352 459.035 122.763 462.211 127.533 464.978L127.547 465.032Z" fill="#D9C89E"/>
<path d="M249.175 488.557L249.025 488.475C188.579 454.115 139.513 318.939 139.799 187.144V186.667H140.249C263.376 170.107 412.686 184.554 473.105 218.873L473.364 219.023V219.323C473.118 351.173 372.575 471.956 249.352 488.529L249.175 488.557ZM140.876 187.594C140.753 318.803 189.396 453.202 249.434 487.439C372.098 470.852 472.001 350.75 472.382 219.541C412.004 185.508 263.54 171.17 140.876 187.594Z" fill="#D9C89E"/>
<path d="M361.671 440.704C331.332 423.463 256.235 416.171 194.289 424.539L194.153 423.531C256.289 415.176 331.673 422.481 362.175 439.804L361.671 440.704Z" fill="#D9C89E"/>
<path d="M441.866 344.235C389.87 314.701 261.236 302.271 155.118 316.541L154.982 315.532C261.291 301.235 390.211 313.719 442.37 343.35L441.866 344.235Z" fill="#D9C89E"/>
<path d="M249.474 488.502L249.079 487.562C324.695 456.037 386.408 323.464 386.654 192.023H387.676C387.431 323.846 325.431 456.841 249.474 488.502Z" fill="#D9C89E"/>
<path d="M249.774 488.161L248.779 487.902C258.783 449.985 267.111 312.084 267.356 180.479H268.378C268.133 312.152 259.792 450.176 249.774 488.161Z" fill="#D9C89E"/>
<path d="M221.289 490.437C174.513 490.437 130.845 474.355 96.0763 443.893C73.9293 424.38 56.4208 400.166 44.83 373.021C32.3592 344.399 26.0488 312.902 26.0761 279.537C7.37662 268.838 -1.29164 256.926 0.998085 245.068C5.94553 219.936 59.2498 197.57 140.249 186.667L140.821 186.585V187.171C140.576 318.64 189.342 453.42 249.529 487.616L250.892 488.366L249.393 488.556C240.077 489.809 230.688 490.437 221.289 490.437ZM139.786 187.73C59.5633 198.633 6.79055 220.645 2.00665 245.327C-0.214928 256.776 8.37155 268.375 26.8393 278.856L27.0983 279.005V279.346C27.0301 312.684 33.3132 344.099 45.7568 372.721C57.3071 399.704 74.7304 423.772 96.7578 443.171C137.796 479.125 191.359 494.962 247.716 487.752C187.938 452.221 139.704 318.394 139.799 187.73H139.786Z" fill="#D9C89E"/>
<path d="M136.556 470.961C126.933 465.509 122.476 459.362 123.662 453.243C126.143 440.431 153.129 429.051 194.099 423.544L194.235 424.553C153.715 430.005 127.07 441.072 124.725 453.447C123.621 459.103 127.915 464.855 137.114 470.089L136.556 470.961Z" fill="#D9C89E"/>
<path d="M56.633 396.041C40.2778 386.773 32.7271 376.414 34.7306 366.056C38.9557 344.249 85.0229 324.909 154.982 315.505L155.119 316.513C85.609 325.863 39.8689 344.917 35.7256 366.247C33.8175 376.101 41.1773 386.091 57.1373 395.127L56.633 396.041Z" fill="#D9C89E"/>
<path d="M249.188 488.529C134.702 467.24 41.886 342.695 42.1313 210.777H43.1535C42.9082 342.178 135.41 466.327 249.365 487.521L249.188 488.529Z" fill="#D9C89E"/>
<path d="M249.27 488.543C112.254 485.517 1.07991 375.746 1.32523 243.828H2.34743C2.10211 375.174 112.881 484.495 249.284 487.507L249.27 488.543Z" fill="#D9C89E"/>
<path d="M276.869 496.489C267.106 496.295 257.561 493.561 249.175 488.557C192.04 496.203 137.687 480.379 96.0899 443.893C73.9429 424.38 56.4344 400.167 44.8436 373.021C32.3319 344.276 26.0215 312.711 26.0897 279.237V278.365L26.8529 278.787C87.0945 313.024 236.131 327.417 359.054 310.885L359.64 310.803V311.389C359.477 400.388 336.784 468.794 300.435 489.933C293.308 494.189 285.17 496.454 276.869 496.489ZM249.379 487.493L249.529 487.589C267.247 497.675 284.256 498.193 299.957 489.088C335.925 468.208 358.4 400.388 358.659 312.043C236.159 328.398 87.9532 314.128 27.1527 280.178C27.1527 313.188 33.4768 344.304 45.8113 372.68C57.3616 399.664 74.7849 423.731 96.8123 443.13C138.218 479.411 192.354 495.18 249.256 487.521L249.379 487.493Z" fill="#D9C89E"/>
<path d="M250.347 490.696C203.625 490.696 158.499 483.432 136.555 470.961L137.06 470.075C167.399 487.316 242.496 494.608 304.442 486.226L304.578 487.248C286.596 489.589 268.48 490.741 250.347 490.696Z" fill="#D9C89E"/>
<path d="M251.192 429.787C171.283 429.787 94.1274 417.343 56.6331 396.041L57.1373 395.155C109.133 424.703 237.753 437.12 343.885 422.85L344.008 423.858C313.234 427.878 282.227 429.859 251.192 429.787Z" fill="#D9C89E"/>
<path d="M217.2 495.33C202.671 495.29 188.491 490.878 176.503 482.669C135.792 455.478 111.586 389.648 111.736 306.578H112.759C112.609 389.308 136.651 454.81 177.075 481.81C198.623 496.216 223.524 498.165 249.052 487.562L249.447 488.502C239.257 492.892 228.295 495.213 217.2 495.33Z" fill="#D9C89E"/>
<path d="M244.282 498.288H244.05C234.85 497.088 230.898 406.971 231.061 318.122H232.083C231.865 434.652 238.012 496.448 244.186 497.252C244.84 497.375 246.503 496.57 248.779 487.902L249.774 488.161C247.962 495.044 246.203 498.288 244.282 498.288Z" fill="#D9C89E"/>
<path d="M276.869 496.489C267.792 496.489 258.415 493.763 249.025 488.475L247.662 487.725L249.174 487.521C275.932 483.824 301.828 475.441 325.676 462.756C346.338 430.346 358.454 376.428 358.577 311.471V311.021H359.013C403.704 305.01 439.917 295.538 464.123 284.062C469.487 262.912 472.233 241.183 472.3 219.363V218.491L473.064 218.914C491.94 229.64 500.69 241.62 498.387 253.532C496.22 264.722 484.485 275.339 465.009 284.702C445.519 361.477 393.386 428.219 326.371 463.615C318.793 475.445 310.016 484.413 300.394 490.042C293.269 494.253 285.146 496.479 276.869 496.489ZM250.865 488.311C268.147 497.688 284.652 497.947 299.93 489.074C309.075 483.773 317.348 475.445 324.599 464.473C301.544 476.531 276.613 484.596 250.865 488.325V488.311ZM359.64 311.893C359.463 375.842 347.66 429.105 327.502 461.816C393.277 426.475 444.428 360.754 463.796 285.193C439.576 296.574 403.717 305.951 359.64 311.907V311.893ZM473.35 220.168C473.217 241.491 470.531 262.723 465.349 283.408C484.076 274.344 495.334 264.054 497.419 253.26C499.613 241.988 491.286 230.553 473.35 220.181V220.168Z" fill="#D9C89E"/>
<path d="M304.578 487.248L304.442 486.226C344.962 480.774 371.62 469.721 374.019 457.345C375.11 451.689 370.816 445.938 361.617 440.704L362.121 439.804C371.743 445.256 376.2 451.403 375.014 457.523C372.575 470.348 345.548 481.728 304.578 487.248Z" fill="#D9C89E"/>
<path d="M343.953 423.817L343.83 422.809C413.34 413.459 459.066 394.405 463.21 373.075C465.118 363.221 457.758 353.231 441.812 344.194L442.316 343.309C458.671 352.59 466.208 362.948 464.218 373.293C460.048 395.086 413.967 414.454 343.953 423.817Z" fill="#D9C89E"/>
<path d="M282.226 491.623C271.142 491.608 260.082 490.573 249.188 488.529L249.365 487.521C299.617 496.87 348.11 484.795 385.918 453.447C430.513 416.444 456.163 356.107 456.3 287.878H457.322C457.185 356.406 431.426 417.043 386.572 454.156C357.297 478.56 320.338 491.831 282.226 491.623Z" fill="#D9C89E"/>
<path d="M255.117 488.598C253.168 488.598 251.219 488.598 249.27 488.598V487.575C317.076 489.061 380.343 464.501 427.555 418.393C472.273 374.779 496.97 316.65 497.065 254.841H498.087C497.978 316.936 473.173 375.283 428.264 419.142C382.238 464.037 320.933 488.598 255.117 488.598Z" fill="#D9C89E"/>
<path d="M473.35 220.168L472.587 219.745C412.345 185.508 263.322 171.116 140.385 187.648L139.799 187.73V187.144C139.963 98.1307 162.656 29.7251 199.019 8.59959C214.747 -0.532065 232.465 -0.04141 250.265 9.96252C307.386 2.33009 361.753 18.1401 403.35 54.6259C425.493 74.1425 443 98.3553 454.596 125.498C467.108 154.243 473.418 185.795 473.364 219.282L473.35 220.168ZM247.757 179.77C339.783 179.77 428.632 194.013 472.341 218.423C472.341 185.399 466.004 154.284 453.669 125.921C442.119 98.9333 424.696 74.8612 402.668 55.4572C361.262 19.176 307.154 3.42045 250.238 11.0665H250.061L249.911 10.9847C232.193 0.885385 215.183 0.381099 199.482 9.47186C163.569 30.3793 141.094 98.1988 140.876 186.558C176.316 181.957 212.02 179.689 247.757 179.77Z" fill="#D9C89E"/>
<path d="M442.316 103.446C390.293 73.8977 261.673 61.4814 155.568 75.7513L155.432 74.7291C261.741 60.4319 390.647 72.9164 442.82 102.547L442.316 103.446Z" fill="#D9C89E"/>
<path d="M362.38 28.5665C332.041 11.3254 256.957 4.03368 194.998 12.4157L194.862 11.4072C256.998 3.05237 332.382 10.3441 362.884 27.6806L362.38 28.5665Z" fill="#D9C89E"/>
<path d="M387.676 192.023H386.654C386.804 109.293 362.761 43.7769 322.337 16.7772C300.789 2.37099 275.902 0.422 250.36 11.0393L249.965 10.0852C275.861 -0.695601 301.048 1.33517 322.909 15.9186C363.62 43.1227 387.826 108.98 387.676 192.023Z" fill="#D9C89E"/>
<path d="M268.378 180.479H267.356C267.629 64.0028 261.427 2.13924 255.253 1.30785C254.64 1.21245 252.95 1.97569 250.66 10.6576L249.665 10.3986C251.56 3.24321 253.4 0.040323 255.39 0.285651C264.589 1.51229 268.542 91.6703 268.378 180.479Z" fill="#D9C89E"/>
<path d="M27.1118 280.178L26.3486 279.755C7.45834 269.029 -1.29169 257.049 1.01166 245.137C3.19236 233.947 14.9136 223.33 34.3899 213.966C53.8798 137.179 106.012 70.4358 173.041 35.0404C180.619 23.2102 189.396 14.2421 199.019 8.61316C214.788 -0.545748 232.56 -0.0278361 250.415 10.1124L251.778 10.862L250.279 11.0664C223.502 14.7565 197.587 23.1397 173.723 35.8309C153.061 68.2415 141.012 122.159 140.821 187.117V187.566H140.385C95.6946 193.577 59.4951 203.049 35.2894 214.525C29.9253 235.675 27.1789 257.404 27.1118 279.224V280.178ZM34.0901 215.179C15.377 224.243 4.10552 234.533 2.02023 245.327C-0.174092 256.613 8.15344 268.048 26.0896 278.419C26.2228 257.096 28.9087 235.864 34.0901 215.179ZM171.951 36.7441C106.162 72.1804 55.0111 137.833 35.5893 213.408C59.8631 202.027 95.7219 192.65 139.799 186.694C139.976 122.732 151.779 69.4545 171.951 36.7441ZM222.652 3.03877C214.49 3.06772 206.486 5.29461 199.482 9.48544C190.337 14.8009 182.064 23.1148 174.813 34.0182C197.878 22.0038 222.807 13.9722 248.548 10.2623C239.679 5.4557 231.048 3.04785 222.652 3.03877Z" fill="#D9C89E"/>
<path d="M57.0692 155.319C40.714 146.038 33.177 135.679 35.1805 125.335C39.392 103.528 85.4728 84.1878 155.432 74.7836L155.568 75.8058C86.0588 85.1419 40.3188 104.209 36.1755 125.539C34.2674 135.393 41.6272 145.37 57.5735 154.406L57.0692 155.319Z" fill="#D9C89E"/>
<path d="M137.319 58.7827C127.696 53.3309 123.24 47.1841 124.425 41.0645C126.906 28.253 153.906 16.8725 194.862 11.3662L194.998 12.3748C154.478 17.8265 127.833 28.8935 125.488 41.2553C124.384 46.9115 128.678 52.6767 137.878 57.9104L137.319 58.7827Z" fill="#D9C89E"/>
<path d="M43.1537 210.777H42.1315C42.2541 142.235 68.0272 81.5983 112.881 44.4175C150.921 12.8519 199.714 0.653668 250.251 10.0579L250.074 11.0665C199.823 1.71676 151.33 13.7924 113.522 45.1398C68.9267 82.198 43.2763 142.549 43.1537 210.777Z" fill="#D9C89E"/>
<path d="M2.3474 243.91H1.3252C1.44786 181.815 26.2396 123.454 71.1619 79.5948C118.578 33.255 182.146 8.62683 250.17 10.0852V11.1074C182.405 9.60814 119.11 34.1818 71.8979 80.2899C27.1528 123.972 2.47006 182.006 2.3474 243.91Z" fill="#D9C89E"/>
<path d="M251.682 318.871C159.126 318.871 69.7717 304.424 26.3896 279.755L26.1306 279.605V279.346C26.3896 147.414 126.824 26.6311 250.101 10.0579H250.265L250.415 10.1396C310.888 44.4992 359.886 179.689 359.64 311.484V311.934H359.191C323.547 316.616 287.632 318.934 251.682 318.871ZM27.1119 279.006C87.449 313.079 235.941 327.431 358.618 311.007C358.754 179.798 310.111 45.3851 250.061 11.1618C127.451 27.6806 27.4936 147.782 27.1119 279.006Z" fill="#D9C89E"/>
<path d="M251.641 188.984C171.733 188.984 94.577 176.554 57.0691 155.251L57.5734 154.352C109.528 183.941 238.203 196.33 344.321 182.046L344.457 183.069C313.683 187.084 282.677 189.06 251.641 188.984Z" fill="#D9C89E"/>
<path d="M251.11 78.5179C204.389 78.5179 159.262 71.2398 137.319 58.7826L137.823 57.8967C168.175 75.1242 243.259 82.4295 305.218 74.0475L305.355 75.0561C287.369 77.4079 269.248 78.5644 251.11 78.5179Z" fill="#D9C89E"/>
<path d="M112.786 306.605H111.764C112.009 174.782 174.009 41.7734 249.965 10.1124L250.36 11.0665C174.745 42.5502 113.031 175.123 112.786 306.605Z" fill="#D9C89E"/>
<path d="M232.083 318.122H231.061C231.306 186.449 239.661 48.4244 249.665 10.4395L250.66 10.6984C240.656 48.6016 232.329 186.517 232.083 318.122Z" fill="#D9C89E"/>
<path d="M358.618 312.057V311.471C358.863 179.988 310.098 45.2079 249.911 11.0256L248.548 10.276L250.06 10.0715C307.304 2.38457 361.671 18.2491 403.309 54.7076C425.452 74.2242 442.959 98.437 454.555 125.58C467.026 154.202 473.336 185.699 473.323 219.064C492.022 229.749 500.69 241.675 498.387 253.532C493.494 278.733 440.149 301.14 359.15 312.029L358.618 312.057ZM251.723 10.8484C311.501 46.2847 359.736 180.179 359.64 310.844C439.863 299.94 492.635 277.929 497.419 253.246C499.641 241.797 491.054 230.199 472.587 219.718L472.341 219.568V219.268C472.341 185.931 466.113 154.515 453.669 125.894C442.119 98.9061 424.696 74.8339 402.668 55.4299C361.671 19.503 308.081 3.69299 251.723 10.8484Z" fill="#D9C89E"/>
<path d="M344.457 183.069L344.321 182.046C413.831 172.71 459.571 153.643 463.714 132.313C465.622 122.473 458.262 112.482 442.316 103.446L442.82 102.547C459.175 111.828 466.712 122.186 464.709 132.531C460.497 154.283 414.417 173.664 344.457 183.069Z" fill="#D9C89E"/>
<path d="M305.355 75.0562L305.218 74.0476C345.725 68.5959 372.384 57.5289 374.728 45.1534C375.818 39.4972 371.539 33.7457 362.325 28.512L362.829 27.6261C372.452 33.0778 376.922 39.2247 375.723 45.3442C373.297 58.1694 346.311 69.5499 305.355 75.0562Z" fill="#D9C89E"/>
<path d="M457.322 287.824H456.3C456.545 156.423 364.029 32.2601 250.074 11.0664L250.251 10.0579C364.67 31.2924 457.567 155.946 457.322 287.824Z" fill="#D9C89E"/>
<path d="M498.114 254.813H497.092C497.337 123.454 386.558 14.133 250.156 11.121V10.0988C387.131 13.0699 498.36 122.854 498.114 254.813Z" fill="#D9C89E"/>
<path d="M248.861 498.343H247.812L244.091 498.275H242.428C240.915 498.275 238.789 498.166 236.976 498.056C226.702 497.528 216.469 496.367 206.338 494.581C187.842 491.313 169.78 485.944 152.502 478.58C143.797 474.81 135.29 470.598 127.015 465.959C119.395 461.717 112.04 457.015 104.99 451.88C103.791 450.967 102.496 449.999 101.146 449.005C96.5806 445.597 91.4015 441.74 87.6398 438.278C86.3859 437.133 85.0093 435.879 83.551 434.585C80.3208 431.682 76.968 428.67 74.3239 426.012C69.6899 421.351 63.8293 415.027 59.7542 410.284C53.9889 403.578 46.779 393.656 37.6883 379.972C33.8799 373.918 30.3773 367.677 27.1937 361.272C23.9231 355.008 21.0064 348.565 18.4573 341.973C13.9574 329.773 10.0727 317.355 6.81783 304.765C4.35092 294.339 2.61999 280.314 1.36609 269.261C0.793662 264.082 0.698256 257.526 0.630109 251.747V248.94C0.492189 241.538 0.833637 234.136 1.65231 226.778C1.89764 224.911 2.14296 222.839 2.40192 220.686C2.96072 215.929 3.54678 211.009 4.25551 206.961C5.414 200.365 7.26759 191.846 8.87585 185.768C10.4296 179.893 12.733 172.384 14.6138 167.095C16.2084 162.584 18.5254 157.01 20.5698 152.103L22.6415 147.06C25.561 140.232 28.9256 133.603 32.7136 127.216C38.0017 118.289 46.2066 106.036 53.6073 95.9911C58.2027 89.8422 63.2118 84.0135 68.5996 78.5456L72.3068 74.8112C75.278 71.7991 78.658 68.3645 81.5202 65.8158C86.8493 61.0728 94.5362 54.7215 101.106 49.6241C105.794 45.9851 112.391 41.6646 115.007 39.9746C118.851 37.4941 124.016 34.5229 128.173 32.0696L129.4 31.3609C137.698 26.6339 146.314 22.4896 155.187 18.9582C162.792 16.0006 168.557 13.888 172.782 12.5115C178.316 10.726 185.825 8.68164 191.005 7.3596C197.519 5.71045 205.997 4.18396 208.396 3.74782C213.847 2.79377 218.345 2.26222 223.088 1.71705C224.819 1.51261 231.511 0.885661 235.123 0.70848C240.057 0.463152 244.309 0.24508 251.573 0.285968C263.062 0.405794 274.529 1.31657 285.892 3.01184C291.412 3.80234 297.818 5.02898 300.775 5.65593C305.014 6.56909 311.256 8.10921 317.512 9.74473C321.056 10.6988 326.017 12.2525 329.847 13.6018C335.53 15.619 342.195 18.1677 346.856 20.1167C355.034 23.524 365.419 29.0711 372.329 32.7374C373.91 33.6369 375.478 34.5637 377.031 35.4633C381.883 38.3391 387.512 41.8009 391.697 44.9084C392.923 45.8216 394.286 46.8165 395.704 47.8387C398.947 50.2102 402.627 52.8952 405.435 55.1849C411.088 59.6443 416.511 64.389 421.681 69.4003C422.894 70.6542 424.243 72.0172 425.661 73.4891C428.755 76.5966 431.958 79.7995 434.465 82.6071C439.154 87.8544 444.497 94.3011 448.095 98.9623C451.693 103.624 456.054 109.866 458.93 114.391C460.511 116.858 465.976 125.499 469.656 132.613C476.003 144.495 481.368 156.875 485.698 169.63C490.223 182.919 493.876 200.705 495.239 207.724C496.506 214.253 497.392 223.112 497.964 229.395C498.332 233.893 498.482 239.563 498.605 244.578C498.605 246.377 498.7 248.108 498.755 249.689C498.899 258.009 498.471 266.329 497.474 274.59C496.629 281.582 495.702 288.805 494.653 294.353C493.426 300.908 491.477 309.413 489.801 315.492C488.206 321.325 485.821 328.78 483.885 334.068C482.182 338.675 479.797 344.358 477.602 349.374L475.626 354.022C473.021 359.849 470.105 365.531 466.89 371.045C464.3 375.583 460.743 381.144 457.608 386.037L455.305 389.744C450.937 396.284 446.185 402.56 441.076 408.539C433.28 417.82 424.85 426.55 415.848 434.666C410.396 439.409 402.6 445.733 395.894 450.804C392.174 453.611 387.063 456.923 382.96 459.581L381.992 460.208C372.972 465.85 363.614 470.935 353.971 475.432C350.577 476.931 341.936 480.706 335.217 483.187C330.187 485.04 322.95 487.385 317.09 489.02C308.479 491.437 299.749 493.407 290.935 494.922C284.338 496.039 280.617 496.462 276.297 496.953C273.776 497.239 267.601 497.784 264.262 497.947C259.519 498.193 256.453 498.343 253.182 498.356H248.861V498.343ZM249.911 1.30817C243.696 1.30817 239.757 1.49898 235.245 1.73068C231.647 1.90786 224.996 2.52118 223.279 2.72562C218.536 3.28442 214.065 3.80234 208.641 4.75639C202.167 5.90125 195.693 7.23693 191.332 8.35453C186.166 9.71747 178.684 11.7074 173.164 13.4928C168.952 14.8557 163.214 16.9546 155.623 19.9122C146.801 23.3962 138.234 27.4951 129.986 32.1786L128.759 32.8873C124.671 35.2997 119.451 38.3391 115.621 40.7651C113.018 42.4415 106.462 46.7484 101.801 50.3056C95.2449 55.3894 87.5853 61.727 82.2698 66.4564C79.4349 68.9778 76.0685 72.3988 73.0973 75.4109L69.3901 79.1453C64.0205 84.5721 59.0339 90.3649 54.466 96.4818C47.0653 106.499 38.8877 118.711 33.6131 127.625C29.866 133.991 26.5423 140.598 23.6637 147.401C23.0231 148.968 22.3008 150.672 21.5784 152.444C19.5476 157.35 17.2306 162.911 15.636 167.436C13.7688 172.711 11.5472 180.166 9.92531 186.027C8.30342 191.887 6.49073 200.569 5.33223 207.138C4.62351 211.159 4.03745 216.066 3.47865 220.768C3.23332 222.921 2.98798 224.993 2.74265 226.874C1.92345 234.181 1.58201 241.533 1.72046 248.885V251.693C1.80224 257.444 1.89763 263.959 2.47007 269.097C3.69671 280.137 5.414 294.121 7.9218 304.534C11.163 317.088 15.0387 329.471 19.534 341.633C22.0675 348.186 24.9659 354.593 28.2159 360.823C31.3762 367.191 34.8561 373.396 38.6423 379.413C45.3816 389.904 52.7266 399.993 60.6401 409.629C64.7289 414.359 70.535 420.669 75.1553 425.317C77.7858 427.947 81.1113 430.946 84.3415 433.849C85.7862 435.143 87.1764 436.384 88.4303 437.529C92.1647 440.963 97.3302 444.807 101.869 448.2C103.232 449.195 104.513 450.163 105.712 451.076C112.724 456.179 120.038 460.853 127.615 465.073C135.859 469.696 144.334 473.894 153.006 477.653C179.697 489.015 208.182 495.581 237.154 497.048C238.912 497.157 241.024 497.239 242.537 497.266H244.186L247.893 497.334C249.011 497.334 250.374 497.334 251.642 497.334H253.263C256.507 497.334 259.574 497.171 264.167 496.939C267.574 496.762 273.707 496.217 276.229 495.93C280.522 495.44 284.243 495.017 290.799 493.913C299.582 492.411 308.28 490.451 316.858 488.039C322.65 486.417 329.901 484.073 334.903 482.233C341.609 479.766 350.209 476.004 353.603 474.491C363.191 470.018 372.499 464.966 381.475 459.363L382.442 458.722C386.531 456.078 391.628 452.766 395.322 449.986C402.014 444.929 409.824 438.619 415.221 433.903C424.184 425.815 432.577 417.117 440.34 407.871C445.423 401.93 450.147 395.69 454.487 389.185L456.831 385.505C459.952 380.626 463.496 375.093 466.085 370.513C469.286 365.043 472.193 359.406 474.795 353.626L476.771 348.965C478.911 343.963 481.337 338.293 483.027 333.714C484.962 328.453 487.334 321.025 488.928 315.219C490.591 309.154 492.54 300.704 493.767 294.175C494.789 288.642 495.716 281.432 496.561 274.467C497.557 266.261 497.985 257.995 497.842 249.73C497.842 248.135 497.746 246.404 497.692 244.592C497.569 239.603 497.433 233.947 497.065 229.477C496.547 223.221 495.702 214.403 494.339 207.929C492.976 200.91 489.283 183.192 484.799 169.958C480.492 157.236 475.155 144.888 468.839 133.036C465.172 125.962 459.734 117.362 458.153 114.895C455.291 110.425 451.052 104.4 447.359 99.5484C443.665 94.6964 438.472 88.4269 433.729 83.1932C431.235 80.4673 428.046 77.2099 424.966 74.1161C423.603 72.7531 422.24 71.3902 420.972 70.0273C415.832 65.0358 410.437 60.3138 404.808 55.88L404.467 55.5938C447.413 93.7559 472.464 150.917 473.295 215.452C473.295 216.543 473.295 217.647 473.295 218.751V219.228C473.118 351.173 372.575 471.956 249.352 488.53L249.215 487.521C372.002 471.002 472.069 350.683 472.341 219.296V218.819C472.341 140.545 436.673 72.7804 376.568 36.3083L371.893 33.5824C365.01 29.9298 354.584 24.3963 346.515 21.0026C341.881 19.0672 335.23 16.5185 329.56 14.515C325.758 13.1521 320.824 11.6256 317.294 10.6851C311.065 9.00874 304.837 7.46862 300.612 6.59635C297.668 5.95577 291.303 4.74276 285.81 3.95226C274.489 2.29516 263.069 1.41175 251.628 1.30817H249.911Z" fill="#D9C89E"/>
</svg>