<svg width="64" height="64" viewBox="0 0 64 64" fill="none" xmlns="http://www.w3.org/2000/svg">
<path d="M8 18C8 14.6863 10.6863 12 14 12H50C53.3137 12 56 14.6863 56 18V46C56 49.3137 53.3137 52 50 52H14C10.6863 52 8 49.3137 8 46V18Z" fill="url(#paint0_linear_372_64)"/>
<path d="M8.03125 46.6239L15.9992 36L19.9992 42L29.9992 28L35.9992 37L48.9992 20L55.9992 29.3333V46C55.9992 49.3137 53.3129 52 49.9992 52H13.9992C10.8962 52 8.34333 49.6444 8.03125 46.6239Z" fill="url(#paint1_linear_372_64)"/>
<path d="M33 28C33 29.6569 31.6569 31 30 31C28.3431 31 27 29.6569 27 28C27 26.3431 28.3431 25 30 25C31.6569 25 33 26.3431 33 28Z" fill="url(#paint2_linear_372_64)"/>
<path d="M23 42C23 43.6569 21.6569 45 20 45C18.3431 45 17 43.6569 17 42C17 40.3431 18.3431 39 20 39C21.6569 39 23 40.3431 23 42Z" fill="url(#paint3_linear_372_64)"/>
<path d="M19 36C19 37.6569 17.6569 39 16 39C14.3431 39 13 37.6569 13 36C13 34.3431 14.3431 33 16 33C17.6569 33 19 34.3431 19 36Z" fill="url(#paint4_linear_372_64)"/>
<path d="M39 37C39 38.6569 37.6569 40 36 40C34.3431 40 33 38.6569 33 37C33 35.3431 34.3431 34 36 34C37.6569 34 39 35.3431 39 37Z" fill="url(#paint5_linear_372_64)"/>
<path d="M52 20C52 21.6569 50.6569 23 49 23C47.3431 23 46 21.6569 46 20C46 18.3431 47.3431 17 49 17C50.6569 17 52 18.3431 52 20Z" fill="url(#paint6_linear_372_64)"/>
<defs>
<linearGradient id="paint0_linear_372_64" x1="32" y1="12" x2="32" y2="52" gradientUnits="userSpaceOnUse">
<stop stop-color="white" stop-opacity="0.5"/>
<stop offset="1" stop-color="white" stop-opacity="0"/>
</linearGradient>
<linearGradient id="paint1_linear_372_64" x1="32.0152" y1="20" x2="32.0152" y2="52" gradientUnits="userSpaceOnUse">
<stop stop-color="#FFE196" stop-opacity="0.5"/>
<stop offset="1" stop-color="white" stop-opacity="0"/>
</linearGradient>
<linearGradient id="paint2_linear_372_64" x1="29.6471" y1="25" x2="29.6471" y2="31" gradientUnits="userSpaceOnUse">
<stop stop-color="#FFE196" stop-opacity="0.8"/>
<stop offset="1" stop-color="#FFE196" stop-opacity="0"/>
</linearGradient>
<linearGradient id="paint3_linear_372_64" x1="19.6471" y1="39" x2="19.6471" y2="45" gradientUnits="userSpaceOnUse">
<stop stop-color="#FFE196" stop-opacity="0.8"/>
<stop offset="1" stop-color="#FFE196" stop-opacity="0"/>
</linearGradient>
<linearGradient id="paint4_linear_372_64" x1="15.6471" y1="33" x2="15.6471" y2="39" gradientUnits="userSpaceOnUse">
<stop stop-color="#FFE196" stop-opacity="0.8"/>
<stop offset="1" stop-color="#FFE196" stop-opacity="0"/>
</linearGradient>
<linearGradient id="paint5_linear_372_64" x1="35.6471" y1="34" x2="35.6471" y2="40" gradientUnits="userSpaceOnUse">
<stop stop-color="#FFE196" stop-opacity="0.8"/>
<stop offset="1" stop-color="#FFE196" stop-opacity="0"/>
</linearGradient>
<linearGradient id="paint6_linear_372_64" x1="48.6471" y1="17" x2="48.6471" y2="23" gradientUnits="userSpaceOnUse">
<stop stop-color="#FFE196" stop-opacity="0.8"/>
<stop offset="1" stop-color="#FFE196" stop-opacity="0"/>
</linearGradient>
</defs>
</svg>