<svg width="64" height="64" viewBox="0 0 64 64" fill="none" xmlns="http://www.w3.org/2000/svg">
<path d="M56 52.001V32.2657C56 30.8607 55.2628 29.5587 54.058 28.8358L37.5145 18.9097C36.848 18.5098 36 18.9899 36 19.7672V52.001C36 54.2101 37.7909 56.001 40 56.001H52C54.2091 56.001 56 54.2101 56 52.001Z" fill="url(#paint0_linear_372_65)"/>
<path d="M16 10C16 8.89543 16.8954 8 18 8L40 8C41.1046 8 42 8.89543 42 10L42 54C42 55.1046 41.1046 56 40 56H18C16.8954 56 16 55.1046 16 54L16 10Z" fill="url(#paint1_linear_372_65)"/>
<path d="M20 13C20 12.4477 20.4477 12 21 12L23 12C23.5523 12 24 12.4477 24 13L24 43C24 43.5523 23.5523 44 23 44H21C20.4477 44 20 43.5523 20 43L20 13Z" fill="url(#paint2_linear_372_65)"/>
<path d="M27 13C27 12.4477 27.4477 12 28 12L30 12C30.5523 12 31 12.4477 31 13L31 43C31 43.5523 30.5523 44 30 44H28C27.4477 44 27 43.5523 27 43L27 13Z" fill="url(#paint3_linear_372_65)"/>
<path d="M34 13C34 12.4477 34.4477 12 35 12L37 12C37.5523 12 38 12.4477 38 13V43C38 43.5523 37.5523 44 37 44H35C34.4477 44 34 43.5523 34 43L34 13Z" fill="url(#paint4_linear_372_65)"/>
<path d="M8 37.7171C8 36.7299 8.72022 35.8904 9.69589 35.7403L31.6959 32.3557C32.9074 32.1693 34 33.1067 34 34.3325V54.0012C34 55.1058 33.1046 56.0012 32 56.0012H10C8.89543 56.0012 8 55.1058 8 54.0012L8 37.7171Z" fill="url(#paint5_linear_372_65)"/>
<defs>
<linearGradient id="paint0_linear_372_65" x1="44.8235" y1="18.7656" x2="44.8235" y2="56.001" gradientUnits="userSpaceOnUse">
<stop stop-color="white" stop-opacity="0.8"/>
<stop offset="1" stop-color="white" stop-opacity="0"/>
</linearGradient>
<linearGradient id="paint1_linear_372_65" x1="29" y1="8" x2="29" y2="56" gradientUnits="userSpaceOnUse">
<stop stop-color="white" stop-opacity="0.5"/>
<stop offset="1" stop-color="white" stop-opacity="0"/>
</linearGradient>
<linearGradient id="paint2_linear_372_65" x1="22" y1="12" x2="22" y2="44" gradientUnits="userSpaceOnUse">
<stop stop-color="#1B365D" stop-opacity="0.5"/>
<stop offset="1" stop-color="white" stop-opacity="0"/>
</linearGradient>
<linearGradient id="paint3_linear_372_65" x1="29" y1="12" x2="29" y2="44" gradientUnits="userSpaceOnUse">
<stop stop-color="#1B365D" stop-opacity="0.5"/>
<stop offset="1" stop-color="white" stop-opacity="0"/>
</linearGradient>
<linearGradient id="paint4_linear_372_65" x1="36" y1="12" x2="36" y2="44" gradientUnits="userSpaceOnUse">
<stop stop-color="#1B365D" stop-opacity="0.5"/>
<stop offset="1" stop-color="white" stop-opacity="0"/>
</linearGradient>
<linearGradient id="paint5_linear_372_65" x1="19.4706" y1="32.332" x2="19.4706" y2="56.0012" gradientUnits="userSpaceOnUse">
<stop stop-color="#FFE196" stop-opacity="0.8"/>
<stop offset="1" stop-color="#FFE196" stop-opacity="0"/>
</linearGradient>
</defs>
</svg>