<svg width="64" height="64" viewBox="0 0 64 64" fill="none" xmlns="http://www.w3.org/2000/svg">
<path d="M56 32C56 45.2548 45.2548 56 32 56C18.7452 56 8 45.2548 8 32C8 18.7452 18.7452 8 32 8C45.2548 8 56 18.7452 56 32Z" fill="url(#paint0_linear_372_66)"/>
<path d="M52 32C52 43.0457 43.0457 52 32 52C20.9543 52 12 43.0457 12 32C12 20.9543 20.9543 12 32 12C43.0457 12 52 20.9543 52 32Z" fill="url(#paint1_linear_372_66)"/>
<path d="M16.5189 31.0296C14.722 29.9209 13.3097 28.6285 12.476 27.7429C12.0511 27.2916 11.2225 26.8554 11.0383 27.4472C10.7347 28.4232 12.2877 30.8732 13.8407 33.5085C15.8493 36.9169 14.1754 35.6775 14.5102 41.255C14.845 46.8324 17.5232 49.0014 19.8666 49.0014C22.21 49.0014 24.5534 41.5648 23.8839 37.2268C23.2143 32.8888 19.5318 32.8888 16.5189 31.0296Z" fill="url(#paint2_linear_372_66)"/>
<path d="M35.7641 20.13C38.345 19.4658 39.4893 18.2354 39.8057 17.5878C39.849 17.4993 39.8848 17.4076 39.9376 17.3245C41.0082 15.6403 45.0155 15.1512 49.3231 18.3448C53.7376 21.6177 56.5756 29.9488 54.053 30.2464C51.5304 30.5439 48.6924 26.9734 45.8545 25.7833C43.0166 24.5931 43.0166 26.9734 44.2779 29.9488C45.5392 32.9242 43.3319 34.1144 43.0166 36.4947C42.7013 38.8751 39.2327 44.2308 37.3407 42.7431C35.4488 41.2554 35.7641 36.1972 35.1335 33.5193C34.5028 30.8415 30.7189 30.2464 30.0883 26.9734C29.4576 23.7005 32.2955 21.0226 35.7641 20.13Z" fill="url(#paint3_linear_372_66)"/>
<path d="M24.3004 10.8863C18.8756 12.8597 14.9545 17.5037 12.9696 20.7333C12.3871 21.681 12.8259 22.8933 13.9103 23.1412C16.3391 23.6964 19.6611 23.5645 21.4985 20.5023C24.4985 15.5023 26.9985 18.5023 27.9985 16.5023C28.6385 15.2222 27.4009 13.0033 26.283 11.4843C25.8272 10.865 25.023 10.6235 24.3004 10.8863Z" fill="url(#paint4_linear_372_66)"/>
<defs>
<linearGradient id="paint0_linear_372_66" x1="32" y1="8" x2="32" y2="56" gradientUnits="userSpaceOnUse">
<stop stop-color="white" stop-opacity="0.5"/>
<stop offset="1" stop-color="white" stop-opacity="0"/>
</linearGradient>
<linearGradient id="paint1_linear_372_66" x1="32" y1="12" x2="32" y2="52" gradientUnits="userSpaceOnUse">
<stop stop-color="#1B365D" stop-opacity="0.5"/>
<stop offset="1" stop-color="#1B365D" stop-opacity="0"/>
</linearGradient>
<linearGradient id="paint2_linear_372_66" x1="16.7353" y1="27.1602" x2="16.7353" y2="49.0014" gradientUnits="userSpaceOnUse">
<stop stop-color="#FFE196" stop-opacity="0.8"/>
<stop offset="1" stop-color="#FFE196" stop-opacity="0"/>
</linearGradient>
<linearGradient id="paint3_linear_372_66" x1="41.0294" y1="16" x2="41.0294" y2="43" gradientUnits="userSpaceOnUse">
<stop stop-color="#FFE196" stop-opacity="0.8"/>
<stop offset="1" stop-color="#FFE196" stop-opacity="0"/>
</linearGradient>
<linearGradient id="paint4_linear_372_66" x1="19.5327" y1="10.7812" x2="19.5327" y2="23.3967" gradientUnits="userSpaceOnUse">
<stop stop-color="#FFE196" stop-opacity="0.8"/>
<stop offset="1" stop-color="#FFE196" stop-opacity="0"/>
</linearGradient>
</defs>
</svg>